<?xml version="1.0" standalone="no"?>
<!DOCTYPE svg PUBLIC "-//W3C//DTD SVG 20010904//EN"
 "http://www.w3.org/TR/2001/REC-SVG-20010904/DTD/svg10.dtd">
<svg version="1.0" xmlns="http://www.w3.org/2000/svg"
 width="1216.000000pt" height="832.000000pt" viewBox="0 0 1216.000000 832.000000"
 preserveAspectRatio="xMidYMid meet">

<g transform="translate(0.000000,832.000000) scale(0.100000,-0.100000)"
fill="#000000" stroke="none">
<path d="M0 4160 l0 -4160 1338 0 1337 0 43 50 c52 61 107 171 90 181 -9 6 -9
13 -1 31 l12 23 1 -25 c1 -23 2 -24 14 -7 19 25 40 23 26 -3 -15 -29 6 -26 25
3 12 19 65 55 65 44 0 -1 -6 -24 -14 -52 -15 -58 -12 -118 9 -192 14 -48 18
-53 45 -53 l29 0 -24 35 c-64 95 -53 218 31 367 151 268 215 433 231 593 5 57
3 64 -43 150 -45 84 -48 95 -48 165 -1 67 4 84 38 155 22 44 43 81 48 83 4 2
8 8 8 13 0 6 -4 7 -10 4 -5 -3 -12 7 -15 22 -4 15 -9 39 -11 53 -3 14 -28 75
-55 136 -42 97 -49 121 -49 177 0 61 2 67 31 89 34 26 132 118 125 118 -2 0
13 32 35 72 44 79 69 146 69 183 0 13 5 27 10 30 12 7 11 126 0 170 -5 18 -6
0 -3 -45 6 -68 5 -74 -10 -62 -17 14 -22 6 -29 -56 -3 -23 -3 -23 -36 7 -36
34 -84 46 -140 37 -25 -5 -32 -4 -23 3 15 9 -15 21 -97 37 -17 4 -29 10 -26
15 3 5 -2 9 -11 9 -9 0 -13 4 -10 10 4 6 -20 9 -62 7 -64 -2 -68 -1 -71 21 -2
15 5 31 19 43 17 15 20 22 11 31 -18 18 -14 101 7 150 10 24 36 66 58 93 22
28 42 57 45 65 4 14 -30 50 -48 50 -4 0 -34 13 -68 29 -34 15 -73 31 -88 35
-34 8 -37 26 -5 27 20 1 19 2 -5 11 -16 5 -28 14 -28 19 0 5 -7 9 -15 9 -8 0
-15 5 -15 10 0 6 -15 10 -34 10 -37 0 -96 45 -96 73 0 13 10 15 58 11 104 -9
196 -25 262 -44 36 -11 83 -21 105 -24 l40 -5 -30 14 c-29 14 -28 14 35 15 64
0 245 43 265 63 7 7 5 8 -5 5 -9 -3 -24 0 -35 8 -10 8 -13 14 -6 14 7 0 10 4
7 9 -3 5 9 11 27 15 52 9 197 60 197 69 0 26 -111 32 -197 11 -18 -5 -24 -4
-19 5 4 6 17 12 29 13 12 0 0 4 -28 8 -45 6 -46 7 -13 8 32 2 94 26 108 43 7
9 50 -8 50 -19 0 -13 75 -39 133 -47 26 -3 45 -10 42 -14 -2 -5 7 -11 21 -14
20 -3 28 0 31 14 3 11 11 19 18 19 6 0 21 8 32 18 15 13 18 23 12 45 -6 23 -5
28 7 23 11 -4 13 0 8 19 -4 17 -1 27 9 31 17 6 11 44 -6 44 -6 0 -1 7 11 16
12 8 22 26 22 40 0 13 5 24 10 24 6 0 10 8 10 18 0 10 6 24 13 31 10 11 10 13
-1 7 -7 -4 -12 -1 -12 9 0 9 6 15 13 14 29 -4 37 3 37 30 0 20 6 30 20 34 11
3 20 12 20 21 0 14 -4 15 -21 6 -11 -7 -53 -10 -94 -8 -40 2 -71 0 -68 -4 2
-5 -8 -8 -22 -8 -14 0 -24 4 -21 9 6 9 -36 20 -88 22 -36 2 133 19 214 22 43
2 55 6 58 20 2 10 -4 19 -15 23 -10 3 -25 9 -34 14 -9 4 -22 5 -29 0 -10 -6
-9 -9 1 -12 8 -3 -3 -8 -25 -12 -41 -8 -61 -1 -30 11 47 17 46 31 -3 54 -27
11 -64 22 -83 23 -41 3 -78 24 -86 49 -3 9 -42 35 -87 57 -45 22 -107 60 -137
85 -30 25 -62 45 -70 45 -40 0 -55 -145 -24 -213 37 -78 44 -86 82 -92 46 -7
162 -42 182 -54 32 -21 -3 -22 -64 -1 -76 25 -93 24 -72 -5 12 -15 18 -17 24
-8 6 10 22 8 72 -6 36 -10 58 -21 50 -24 -38 -13 -73 -17 -83 -9 -16 12 -89
23 -82 12 8 -13 65 -40 84 -40 14 0 14 -2 1 -10 -13 -8 -12 -10 5 -11 11 -1
26 0 34 1 23 3 81 -10 81 -19 0 -13 -76 -34 -104 -29 -14 3 -26 2 -26 -2 0 -4
-23 -11 -52 -14 -37 -5 -48 -10 -38 -16 11 -7 7 -11 -18 -16 -22 -4 -38 -15
-44 -30 -6 -13 -15 -21 -21 -17 -5 3 -3 9 4 14 11 7 11 9 -1 9 -23 0 -38 -13
-40 -35 -4 -33 -1 -38 39 -84 22 -25 42 -53 44 -63 5 -17 4 -17 -25 -1 -47 28
-157 151 -152 171 2 9 -5 28 -16 42 -11 14 -20 20 -20 13 0 -6 5 -15 10 -18 6
-3 10 -11 10 -16 0 -34 -66 75 -100 163 -22 59 -24 99 -7 171 l12 48 75 -51
c87 -60 136 -105 143 -130 4 -16 1 -16 -39 -4 -49 15 -60 9 -14 -7 16 -6 28
-14 25 -19 -2 -4 1 -15 8 -24 14 -20 84 -38 93 -25 3 5 0 9 -5 9 -6 0 -11 7
-11 15 0 9 6 12 18 9 11 -4 8 1 -8 15 l-25 21 24 0 c18 0 1 14 -65 56 -113 71
-202 138 -335 252 -105 90 -108 93 -169 214 -34 68 -71 135 -82 150 -16 23
-16 27 -3 22 14 -6 14 -3 4 20 -7 14 -16 26 -21 26 -4 0 -8 5 -8 10 0 14 24 1
83 -44 25 -19 47 -32 50 -30 3 3 23 -4 46 -15 43 -22 66 -28 41 -10 -12 8 -9
9 10 4 24 -7 53 -11 93 -14 10 0 15 -5 12 -11 -3 -5 0 -7 8 -4 8 3 18 1 22 -5
9 -16 138 -14 133 2 -3 6 -18 14 -34 15 l-29 4 25 15 c24 14 25 14 2 9 -20 -4
-21 -2 -10 11 11 13 15 12 36 -12 21 -25 24 -26 41 -11 20 18 20 58 1 81 -8
10 -6 19 13 37 14 12 28 34 32 47 7 22 5 23 -20 17 -49 -12 -67 30 -26 61 14
10 14 12 -1 18 -9 4 -38 -4 -65 -17 l-50 -23 16 40 c17 42 133 165 156 165 7
0 16 6 18 13 3 6 6 -8 6 -33 2 -55 31 -101 53 -82 8 6 18 8 23 4 12 -11 -3 92
-27 183 -11 44 -21 86 -21 93 0 6 -3 12 -7 12 -8 0 -11 97 -4 133 3 15 9 27
14 27 5 0 28 -27 51 -60 23 -33 44 -58 47 -55 3 3 18 -6 32 -20 35 -33 63 -27
120 26 49 46 66 52 25 9 -16 -17 -23 -30 -16 -30 7 0 9 -4 6 -10 -3 -5 -16
-10 -28 -10 -16 0 -18 -3 -9 -12 9 -9 19 -5 44 19 28 27 35 29 46 17 7 -8 8
-14 2 -14 -5 0 -10 -7 -10 -15 0 -8 -5 -15 -11 -15 -5 0 -7 4 -4 10 3 6 -1 7
-9 4 -9 -3 -13 -10 -10 -15 3 -5 0 -9 -5 -9 -19 0 -12 -29 9 -40 12 -6 31 -10
42 -8 15 2 26 -5 34 -21 18 -36 34 -41 105 -32 55 7 58 9 22 10 -24 0 -43 5
-43 10 0 4 -11 7 -25 6 -26 -3 -51 18 -40 35 3 5 1 10 -5 10 -7 0 -6 8 4 21
11 17 12 26 3 39 -8 14 -8 22 2 34 11 13 11 16 -2 16 -9 0 -21 -8 -26 -17 -6
-11 -11 -13 -11 -5 0 20 48 90 70 102 22 12 195 10 176 -2 -6 -4 2 -8 19 -8
17 0 44 9 60 21 17 11 40 24 51 29 14 5 24 21 28 44 4 20 12 36 19 36 7 0 4 5
-6 11 -13 8 -22 7 -32 -1 -10 -8 -15 -8 -20 1 -4 6 -1 15 6 20 21 13 -7 12
-32 -2 -11 -5 -39 -14 -62 -18 -41 -8 -41 -8 -17 -20 l25 -12 -25 6 c-14 2
-36 5 -50 5 -63 0 45 40 228 83 7 2 18 9 25 17 10 12 9 12 -5 1 -23 -17 -23
-3 -1 21 9 10 12 18 6 18 -5 0 -10 7 -10 15 0 8 5 15 10 15 5 0 4 7 -3 15 -9
10 -9 15 -1 15 6 0 12 -4 12 -10 1 -5 3 -14 4 -20 1 -5 3 -13 4 -17 1 -5 6 -1
11 7 9 13 12 13 23 -1 13 -17 47 -33 46 -21 0 4 -34 36 -75 71 -41 35 -73 66
-70 68 3 3 21 -8 41 -26 74 -65 43 -27 -62 74 -59 58 -102 105 -94 105 8 0 23
-7 32 -16 12 -10 35 -16 61 -16 56 1 77 -10 58 -32 -17 -22 -7 -30 19 -17 14
8 18 17 14 29 -5 14 -4 15 8 6 19 -15 51 -26 45 -15 -3 5 -32 19 -63 31 -104
41 -149 68 -208 121 -50 46 -55 54 -41 65 14 10 14 12 2 17 -8 3 -17 1 -19 -6
-3 -9 -7 -9 -17 0 -7 6 -10 16 -6 21 7 12 86 14 86 2 0 -4 28 6 62 23 l63 30
-55 12 c-79 16 -244 112 -371 215 -35 27 -67 50 -71 50 -4 0 29 -49 73 -109
45 -60 81 -113 81 -118 0 -4 4 -16 9 -25 23 -43 -4 -11 -62 75 -35 50 -86 116
-114 145 -48 48 -54 52 -99 52 -29 0 -45 4 -41 10 10 16 -4 12 -24 -7 -23 -23
-51 -95 -51 -131 0 -19 22 -55 71 -117 72 -91 51 -73 -72 62 l-47 51 30 52
c16 29 27 58 24 66 -3 7 -1 16 4 19 6 4 10 13 10 21 0 9 -5 12 -12 8 -8 -5 -9
-2 -5 9 4 10 2 16 -6 14 -19 -3 -8 35 16 60 45 46 51 55 32 51 -26 -4 -30 19
-5 27 12 4 19 9 17 11 -5 5 -75 -20 -122 -43 -32 -16 -78 -15 -73 2 2 6 9 9
15 9 7 -1 10 2 7 7 -2 5 8 11 23 14 15 4 38 11 51 16 13 5 28 7 33 4 14 -9 50
15 42 28 -11 18 -14 47 -4 47 5 0 11 -7 15 -15 3 -8 9 -14 13 -13 4 1 18 -3
31 -10 12 -7 22 -9 22 -4 0 4 -19 19 -42 32 -51 27 -133 86 -208 149 -30 25
-58 47 -62 47 -4 1 -17 2 -28 3 -12 1 -17 6 -14 15 3 9 -3 17 -15 21 -12 3
-21 15 -21 26 0 22 -11 24 -28 7 -9 -9 -12 -9 -12 0 0 7 5 12 11 12 8 0 7 6
-2 17 -8 10 -9 14 -2 10 6 -4 15 -3 18 3 4 6 3 10 -2 9 -19 -3 -53 14 -53 27
0 8 -7 14 -15 14 -8 0 -14 5 -13 11 2 6 -2 13 -8 16 -12 4 -14 -9 -15 -77 l-1
-45 -13 45 c-23 83 -35 106 -46 90 -6 -10 -7 -5 -3 18 4 21 3 32 -5 32 -17 0
-13 57 6 86 l17 26 17 -34 18 -33 1 52 c0 28 -5 55 -10 58 -33 21 17 89 100
136 49 27 51 31 5 13 -11 -5 -13 -2 -9 10 3 9 11 16 18 16 6 0 4 5 -4 10 -12
8 -9 10 11 10 15 0 32 7 39 15 7 9 32 20 57 26 24 6 45 15 48 19 6 10 -90 -8
-152 -29 -42 -14 -50 -15 -41 -3 7 8 13 20 14 27 1 7 5 23 9 36 5 19 2 17 -14
-8 -11 -18 -23 -44 -27 -57 -3 -15 -20 -30 -45 -41 -22 -10 -50 -29 -63 -42
l-24 -23 -25 68 c-14 38 -28 89 -32 115 -4 26 -12 47 -17 47 -7 0 -8 -17 -3
-47 11 -72 12 -77 18 -93 35 -83 37 -102 18 -129 -21 -28 -80 -87 -82 -80 -5
27 -4 47 3 43 4 -3 5 2 2 10 -3 9 -9 16 -13 16 -4 0 -7 10 -8 21 -1 12 -11 31
-22 43 -12 12 -21 28 -21 34 0 7 -8 12 -17 13 -11 0 -13 3 -5 6 20 8 14 22 -8
18 -11 -2 -22 0 -25 6 -4 5 0 9 7 9 10 0 9 3 -2 10 -9 5 -19 5 -27 -2 -9 -8
-13 -7 -13 2 0 17 -30 39 -54 40 -12 0 -16 5 -12 16 3 8 2 13 -3 10 -5 -3 -26
11 -47 31 -22 20 -33 33 -26 29 7 -4 12 -1 12 8 0 9 -3 15 -7 15 -5 -1 -15 -1
-23 0 -13 1 -13 2 0 11 13 8 12 10 -3 10 -18 0 -47 22 -47 35 0 13 -46 51 -58
47 -6 -2 -15 3 -18 12 -3 9 -10 13 -15 10 -5 -3 -9 0 -9 5 0 6 -7 11 -15 11
-8 0 -15 5 -15 10 0 6 -9 10 -21 10 -11 0 -18 4 -15 8 5 8 -79 40 -119 46 -11
2 -26 -4 -33 -13 -8 -9 -11 -10 -7 -3 3 6 3 13 -2 13 -50 7 -82 4 -103 -8 -16
-10 -21 -11 -12 -2 21 22 13 30 -13 13 -14 -9 -28 -14 -32 -11 -3 4 -17 -3
-31 -13 -13 -11 -36 -20 -51 -20 -42 0 -105 26 -115 47 -6 13 -19 20 -37 20
-39 0 -57 22 -53 66 2 23 -1 35 -7 31 -6 -3 -8 3 -4 18 3 12 7 33 8 46 0 12 5
22 9 22 4 0 8 9 8 19 0 11 4 23 10 26 10 6 35 84 31 99 -1 5 1 16 5 25 4 9 8
23 9 31 2 8 6 30 10 48 l8 32 -802 0 -801 0 0 -4160z m2765 3150 c4 -6 -5 -24
-19 -41 -29 -34 -34 -59 -11 -59 8 0 19 -9 24 -19 8 -15 6 -25 -11 -47 -13
-15 -42 -57 -65 -93 -24 -36 -43 -59 -43 -51 0 9 -6 8 -21 -6 -12 -10 -24 -17
-28 -15 -3 2 -11 -6 -17 -18 -6 -12 -15 -22 -20 -21 -5 1 -10 -4 -13 -11 -2
-6 1 -9 7 -5 11 7 -11 -91 -24 -103 -3 -3 -4 3 -1 14 3 11 9 34 12 50 5 24 4
27 -5 15 -20 -26 -1 58 31 140 39 96 66 143 130 219 51 62 63 69 74 51z m15
-186 c0 -8 -5 -12 -10 -9 -6 4 -8 11 -5 16 9 14 15 11 15 -7z m110 -244 c0 -5
-2 -10 -4 -10 -3 0 -8 5 -11 10 -3 6 -1 10 4 10 6 0 11 -4 11 -10z m84 -366
c3 -8 2 -12 -4 -9 -6 3 -10 10 -10 16 0 14 7 11 14 -7z m123 -13 c0 -11 -5
-17 -9 -15 -11 7 -10 34 1 34 6 0 9 -9 8 -19z m-97 -44 c0 -16 -3 -18 -9 -8
-7 11 -13 10 -35 -4 -14 -10 -26 -21 -26 -26 0 -6 -8 -12 -17 -16 -10 -3 -26
-13 -35 -21 -10 -8 -18 -11 -18 -6 0 5 27 30 60 54 33 25 60 49 60 53 0 19 20
-6 20 -26z m150 -5 c14 -2 32 -11 40 -19 12 -12 12 -14 1 -8 -11 6 -13 4 -8
-8 6 -17 -11 -27 -49 -27 -14 0 -35 -6 -47 -14 -16 -11 -212 -66 -233 -66 -12
0 -1 29 15 44 15 13 20 14 24 4 3 -7 6 -4 6 8 1 20 4 21 51 11 56 -11 91 -4
72 15 -20 20 -13 32 7 13 18 -15 24 -16 50 -4 l30 14 -26 27 -26 27 27 -5 c17
-3 26 0 27 8 0 9 3 8 7 -2 4 -8 18 -16 32 -18z m-300 -86 c0 -2 -8 -10 -17
-17 -16 -13 -17 -12 -4 4 13 16 21 21 21 13z m-639 -91 c0 -5 9 -24 20 -41 10
-17 19 -40 18 -50 0 -11 -6 -5 -13 15 -7 19 -18 37 -24 39 -7 2 -10 -2 -6 -12
3 -9 4 -16 0 -16 -12 0 -96 44 -96 51 0 21 100 35 101 14z m607 -51 c-7 -15
-14 -21 -16 -15 -2 7 2 18 8 26 18 22 21 18 8 -11z m12 -44 c0 -11 -4 -20 -9
-20 -5 0 -7 9 -4 20 3 11 7 20 9 20 2 0 4 -9 4 -20z m-706 -3 c4 4 4 -1 0 -11
-6 -17 -4 -18 22 -12 27 6 28 5 10 -9 -25 -19 -31 -19 -50 1 -20 20 -22 52 -3
35 8 -6 17 -8 21 -4z m716 -45 c0 -13 -12 -22 -22 -16 -10 6 -1 24 13 24 5 0
9 -4 9 -8z m-715 -61 c3 -5 1 -12 -5 -16 -5 -3 -10 1 -10 9 0 18 6 21 15 7z
m1807 -23 c-7 -7 -12 -8 -12 -2 0 14 12 26 19 19 2 -3 -1 -11 -7 -17z m-731
-49 c-9 -23 -10 -22 -10 11 -1 23 2 31 9 24 7 -7 7 -19 1 -35z m-577 -49 c8 0
17 8 19 18 3 10 5 6 6 -11 1 -24 -2 -27 -19 -22 -21 7 -27 -4 -10 -21 6 -6 3
-10 -9 -10 -16 0 -17 4 -10 26 8 23 8 23 -5 7 -13 -17 -16 -16 -40 26 -36 60
-33 65 14 23 22 -20 46 -36 54 -36z m1156 -32 c20 -22 20 -23 3 -28 -10 -3
-38 -15 -63 -26 -25 -12 -79 -34 -120 -50 -41 -15 -100 -43 -130 -60 -56 -33
-154 -124 -133 -124 6 0 13 5 15 12 2 6 15 13 29 15 21 3 20 -1 -19 -38 -31
-29 -48 -38 -62 -34 -11 4 -20 2 -20 -4 0 -6 -10 -11 -23 -11 -22 0 -24 -4
-18 -63 1 -5 6 -5 13 -1 8 5 9 0 3 -17 -4 -13 -10 -49 -14 -79 l-7 -55 -7 57
c-5 32 -6 62 -2 67 3 6 -6 17 -19 26 -29 19 -42 55 -50 139 -7 62 3 270 12
261 3 -3 7 -37 8 -76 3 -74 28 -167 48 -175 7 -3 24 1 38 8 37 20 128 91 128
101 0 4 32 23 70 41 39 18 67 36 63 40 -4 4 1 4 11 0 12 -5 22 -1 28 10 10 17
18 22 123 62 75 29 70 28 95 2z m-1219 -25 c13 -16 12 -17 -3 -4 -10 7 -18 15
-18 17 0 8 8 3 21 -13z m1382 -147 c27 -32 33 -46 24 -55 -27 -27 -52 -2 -68
66 -9 44 2 41 44 -11z m64 -158 c-3 -8 -6 -5 -6 6 -1 11 2 17 5 13 3 -3 4 -12
1 -19z m-587 -45 c26 -17 40 -33 40 -45 0 -6 -119 29 -130 39 -8 7 24 23 45
23 11 0 32 -8 45 -17z m363 -120 c-7 -2 -21 -2 -30 0 -10 3 -4 5 12 5 17 0 24
-2 18 -5z m-2079 -29 c3 -8 2 -12 -4 -9 -6 3 -10 10 -10 16 0 14 7 11 14 -7z
m1359 -23 c20 -15 34 -31 31 -34 -3 -3 0 -8 7 -13 8 -4 10 -3 5 4 -10 16 5 14
29 -4 21 -16 74 -10 88 10 4 6 6 -33 5 -86 -2 -54 -5 -98 -6 -98 -2 0 -43 25
-90 56 -95 62 -77 59 -242 38 -73 -9 -26 14 57 28 40 6 72 17 72 22 -3 22 1
106 5 106 2 0 19 -13 39 -29z m921 1 c3 -5 -1 -9 -9 -9 -8 0 -15 4 -15 9 0 4
4 8 9 8 6 0 12 -4 15 -8z m-2384 -147 c58 -30 86 -94 60 -135 -8 -12 -10 -11
-10 7 0 12 -4 25 -10 28 -5 3 -10 -1 -10 -10 0 -23 -18 -9 -35 28 -8 18 -12
22 -9 10 7 -32 -24 -63 -63 -63 -31 0 -43 -12 -24 -24 4 -3 11 -19 14 -36 8
-38 27 -39 27 -2 0 51 37 67 78 33 28 -24 28 -28 -8 -85 -26 -40 -35 -47 -58
-44 -15 2 -26 8 -25 13 2 15 -28 45 -45 45 -9 0 -26 10 -39 22 -23 21 -34 13
-11 -10 17 -17 3 -25 -20 -11 -47 29 -57 124 -19 179 43 64 140 90 207 55z
m2034 -84 c3 -5 -3 -11 -15 -14 -16 -4 -18 -3 -8 9 13 16 16 17 23 5z m-59
-41 c3 -5 -1 -10 -9 -10 -9 0 -16 5 -16 10 0 6 4 10 9 10 6 0 13 -4 16 -10z
m-1855 -49 c0 -5 -7 -12 -16 -15 -14 -5 -15 -4 -4 9 14 17 20 19 20 6z m-38
-86 c16 -14 23 -25 16 -25 -8 0 -25 11 -38 25 -13 14 -20 25 -16 25 5 0 21
-11 38 -25z m390 -30 c-5 -26 -16 -32 -27 -15 -7 11 11 40 25 40 4 0 5 -11 2
-25z m-537 -25 c3 -5 11 -10 16 -10 6 0 7 5 3 11 -4 7 -1 10 7 7 8 -3 15 -20
15 -39 1 -19 5 -42 9 -51 4 -11 3 -18 -3 -18 -6 0 -14 9 -17 20 -5 15 -12 19
-29 14 -14 -3 -27 1 -35 10 -19 23 -5 37 25 26 22 -9 24 -8 14 9 -5 11 -15 22
-22 24 -9 4 -10 6 -1 6 6 1 15 -3 18 -9z m85 -146 c0 -8 -9 -14 -20 -14 -14 0
-20 -7 -21 -22 -1 -18 -2 -19 -6 -5 -6 22 24 70 37 62 6 -4 10 -13 10 -21z
m-30 -107 c0 -5 -4 -5 -10 -2 -5 3 -10 14 -10 23 0 15 2 15 10 2 5 -8 10 -19
10 -23z m1440 18 c10 -13 10 -19 -3 -33 -9 -10 -25 -18 -37 -19 -17 -2 -19 2
-13 25 10 41 32 52 53 27z m-1483 -53 c-10 -10 -17 -25 -17 -33 0 -12 -2 -11
-10 1 -7 11 -4 20 11 33 28 22 37 22 16 -1z m1525 -12 c-7 -46 -43 -68 -56
-34 -9 24 -8 31 10 49 24 24 50 15 46 -15z m-316 -28 c-5 -4 -66 26 -66 33 0
3 16 -3 35 -12 19 -9 33 -18 31 -21z m-1146 -22 c0 -5 -5 -10 -11 -10 -5 0 -7
5 -4 10 3 6 8 10 11 10 2 0 4 -4 4 -10z m20 -32 c0 -4 -4 -8 -9 -8 -6 0 -12 4
-15 8 -3 5 1 9 9 9 8 0 15 -4 15 -9z m170 -39 c0 -5 -4 -9 -10 -9 -5 0 -10 7
-10 16 0 8 5 12 10 9 6 -3 10 -10 10 -16z m948 -202 c13 -14 44 -38 68 -53 43
-27 55 -44 33 -44 -6 0 -28 -15 -49 -34 -26 -23 -51 -35 -84 -40 -55 -9 -68
-2 -40 18 17 13 15 14 -21 5 -98 -25 -133 -29 -178 -23 -37 5 -47 10 -45 23 3
16 54 31 199 61 61 12 83 37 72 81 -5 17 -3 20 8 14 8 -4 1 7 -16 25 l-30 33
30 -20 c17 -12 41 -32 53 -46z m-1114 -28 c-4 -6 -11 -6 -20 2 -21 17 -17 31
6 19 11 -6 18 -15 14 -21z m-724 -85 c0 -14 -12 -19 -23 -8 -9 9 4 35 14 28 5
-3 9 -12 9 -20z m236 -6 c4 -7 4 -10 -1 -6 -4 4 -14 3 -22 -3 -13 -11 -19 2
-6 14 10 11 21 8 29 -5z m1690 -7 c-6 -10 49 -61 65 -61 5 0 9 -4 9 -10 0 -6
-28 -10 -67 -9 -53 1 -61 3 -38 9 17 4 25 8 20 9 -19 2 -8 71 11 71 3 0 3 -4
0 -9z m-39 -47 c-3 -3 -12 -4 -19 -1 -8 3 -5 6 6 6 11 1 17 -2 13 -5z m-807
-239 c26 -31 -18 -63 -47 -34 -8 8 -7 16 5 30 20 23 26 23 42 4z m1275 5 c3
-5 2 -10 -4 -10 -5 0 -13 5 -16 10 -3 6 -2 10 4 10 5 0 13 -4 16 -10z m298
-57 c-7 -2 -21 -2 -30 0 -10 3 -4 5 12 5 17 0 24 -2 18 -5z m60 -10 c-7 -2
-21 -2 -30 0 -10 3 -4 5 12 5 17 0 24 -2 18 -5z m187 -94 c-6 -10 -15 -19 -21
-19 -6 0 -7 5 -2 13 4 6 8 15 9 20 1 4 2 10 3 13 0 3 6 2 11 -1 7 -4 7 -13 0
-26z m-1871 -58 c12 -16 21 -38 21 -50 0 -11 16 -64 35 -117 42 -116 45 -137
8 -64 -15 30 -39 67 -54 81 -61 60 -94 179 -50 179 11 0 29 -13 40 -29z m1385
11 c3 -5 -1 -9 -9 -9 -8 0 -12 4 -9 9 3 4 7 8 9 8 2 0 6 -4 9 -8z m416 -2 c0
-5 7 -6 17 -3 10 4 14 2 10 -4 -7 -12 -54 -23 -62 -15 -6 7 14 32 26 32 5 0 9
-4 9 -10z m-471 -63 c0 -9 -2 -9 -5 0 -3 7 -13 9 -22 6 -14 -4 -14 -3 -2 5 16
12 30 7 29 -11z m431 -111 c0 -9 7 -12 21 -9 16 4 20 2 17 -8 -5 -15 -50 -24
-74 -15 -12 5 -12 9 -2 26 15 23 38 27 38 6z m-940 -38 c87 -14 122 -29 50
-22 -59 7 -160 32 -160 41 0 3 10 2 23 -1 12 -4 51 -12 87 -18z m487 -14 c-3
-3 -12 -4 -19 -1 -8 3 -5 6 6 6 11 1 17 -2 13 -5z m-337 -30 c0 -2 -7 -4 -15
-4 -8 0 -15 4 -15 10 0 5 7 7 15 4 8 -4 15 -8 15 -10z m73 9 c-7 -2 -19 -2
-25 0 -7 3 -2 5 12 5 14 0 19 -2 13 -5z m-88 -544 c-4 -20 -2 -28 5 -24 6 4 2
-10 -9 -31 -12 -21 -21 -44 -21 -50 0 -6 -7 -17 -15 -24 -13 -11 -14 -8 -9 19
7 34 3 37 -27 21 -13 -8 -19 -7 -19 0 0 7 -8 9 -20 5 -26 -8 -26 7 0 30 18 16
111 83 118 84 1 1 0 -13 -3 -30z m-15 -220 c0 -6 -4 -7 -10 -4 -5 3 -10 11
-10 16 0 6 5 7 10 4 6 -3 10 -11 10 -16z m375 -319 c-11 -5 -29 -8 -40 -8 -16
0 -15 2 5 8 34 11 60 11 35 0z m-82 -17 c-7 -2 -19 -2 -25 0 -7 3 -2 5 12 5
14 0 19 -2 13 -5z m-133 -315 c0 -5 -4 -6 -10 -3 -5 3 -10 -2 -10 -11 0 -13
-3 -15 -10 -8 -15 15 -2 44 16 37 8 -3 14 -9 14 -15z m-135 -698 c3 -5 2 -10
-4 -10 -5 0 -13 5 -16 10 -3 6 -2 10 4 10 5 0 13 -4 16 -10z m-1517 -329 c6
-19 -25 -41 -57 -41 -45 0 -104 21 -93 32 24 24 142 32 150 9z m1728 -312
c-23 -66 -75 -158 -97 -169 -15 -8 -19 -8 -17 2 2 9 -10 13 -36 13 -26 0 -41
5 -44 15 -3 8 -2 12 2 9 8 -7 27 9 131 109 39 37 71 66 73 66 1 -1 -4 -21 -12
-45z m-233 -194 c-5 -8 -30 -39 -57 -70 -39 -46 -53 -55 -71 -51 -14 4 -25 1
-28 -7 -3 -9 -7 -9 -17 0 -7 6 -18 9 -25 7 -22 -9 -28 16 -9 37 24 27 77 58
142 85 58 23 78 23 65 -1z m90 -10 c-8 -68 -15 -89 -35 -117 -12 -17 -24 -26
-26 -20 -2 6 -10 8 -19 5 -13 -5 -14 1 -8 38 11 66 43 121 69 117 14 -2 20 -9
19 -23z m-83 -36 c-7 -11 -14 -18 -17 -15 -3 3 0 12 7 21 18 21 23 19 10 -6z"/>
<path d="M1535 5210 c-3 -5 -1 -10 4 -10 6 0 11 5 11 10 0 6 -2 10 -4 10 -3 0
-8 -4 -11 -10z"/>
<path d="M1605 5170 c3 -5 11 -10 16 -10 6 0 7 5 4 10 -3 6 -11 10 -16 10 -6
0 -7 -4 -4 -10z"/>
<path d="M1391 5078 c-1 -15 4 -30 9 -33 12 -7 12 12 0 40 -8 18 -9 17 -9 -7z"/>
<path d="M1540 4980 c0 -5 5 -10 11 -10 5 0 7 5 4 10 -3 6 -8 10 -11 10 -2 0
-4 -4 -4 -10z"/>
<path d="M2738 4229 c-21 -12 -24 -29 -4 -29 7 0 16 9 19 20 3 11 4 20 4 20
-1 0 -10 -5 -19 -11z"/>
<path d="M3150 7505 c0 -8 7 -15 16 -15 8 0 13 4 9 9 -3 5 7 12 22 14 23 3 21
4 -9 6 -28 1 -38 -3 -38 -14z"/>
<path d="M3240 7510 c-8 -5 -10 -10 -5 -10 6 0 17 5 25 10 8 5 11 10 5 10 -5
0 -17 -5 -25 -10z"/>
<path d="M10945 7364 c-92 -45 -138 -93 -153 -162 -10 -43 -9 -59 3 -87 10
-25 18 -33 29 -29 9 3 16 2 16 -3 0 -14 -34 -43 -51 -43 -39 -1 -42 -16 -10
-76 42 -80 41 -134 -1 -86 -22 24 -113 204 -111 220 0 6 -7 12 -17 12 -9 0
-34 11 -54 25 -50 34 -45 17 14 -51 27 -31 59 -81 70 -111 19 -52 28 -153 12
-153 -10 0 -32 -93 -24 -101 4 -4 64 -26 134 -49 85 -28 125 -46 122 -54 -6
-16 31 -33 92 -41 27 -4 87 -22 134 -40 47 -18 105 -39 130 -47 31 -9 45 -18
45 -31 0 -9 14 -26 32 -36 44 -27 48 -39 18 -53 -19 -9 -25 -17 -21 -32 7 -26
-20 -56 -51 -56 -23 0 -83 -48 -83 -67 0 -14 -59 -66 -127 -112 -35 -23 -63
-43 -63 -45 0 -7 90 14 126 29 20 8 39 13 42 10 3 -3 -15 -25 -40 -49 -55 -52
-77 -108 -61 -159 11 -36 13 -33 -53 -85 -51 -39 -70 -42 -28 -4 24 22 31 36
30 63 l-1 34 -61 5 c-42 3 -65 1 -73 -7 -19 -21 -33 -16 -21 6 5 11 10 28 9
38 0 14 -3 12 -11 -7 -6 -14 -10 -28 -10 -32 1 -5 -3 -8 -9 -8 -5 0 -8 -4 -5
-9 6 -9 -42 -34 -53 -27 -4 3 -13 0 -21 -6 -12 -8 -12 -9 3 -4 11 4 16 2 11
-5 -3 -6 -15 -9 -25 -6 -11 3 -19 2 -19 -3 0 -4 -12 -10 -27 -14 -16 -3 -45
-10 -66 -15 l-39 -9 23 24 c20 21 21 26 9 34 -12 8 -10 10 9 10 27 0 105 47
140 84 15 16 21 33 19 52 -2 24 -10 31 -43 42 -33 11 -69 10 -220 -3 -99 -9
-198 -20 -220 -24 -66 -14 145 -12 252 2 51 7 100 10 110 6 12 -4 6 -7 -17 -7
-19 -1 -50 -6 -69 -11 -19 -6 -37 -8 -42 -6 -11 7 -59 -16 -53 -26 2 -4 -8
-16 -23 -26 -15 -10 -31 -21 -34 -25 -14 -20 -146 -37 -234 -31 -61 4 -98 2
-113 -6 -14 -8 -22 -8 -22 -1 0 15 -62 12 -84 -5 -23 -18 -14 -20 16 -4 19 11
21 9 15 -18 -10 -49 2 -73 45 -90 24 -10 35 -19 28 -23 -6 -4 -11 -11 -10 -16
2 -11 -68 -35 -106 -36 -17 0 -37 -4 -45 -10 -10 -6 -2 -8 24 -5 26 3 37 1 34
-7 -2 -6 -47 -15 -108 -21 -127 -13 -86 -26 56 -18 128 8 101 -5 -34 -16 -62
-5 -115 -11 -118 -14 -9 -9 27 -107 73 -199 24 -48 44 -96 44 -105 0 -27 -112
165 -140 241 l-24 66 -47 0 c-48 0 -65 -14 -53 -45 4 -8 1 -16 -5 -16 -6 -1
-15 -3 -21 -4 -5 -1 -14 -3 -20 -4 -14 -1 -12 -27 3 -43 27 -30 87 -142 87
-164 0 -17 -86 -85 -118 -94 -15 -4 -26 -13 -24 -20 3 -15 -18 -31 -30 -24
-18 11 -5 26 57 65 36 22 65 44 65 49 0 4 -30 -7 -67 -26 -38 -19 -74 -34 -80
-34 -21 0 -15 21 7 27 10 3 45 18 77 34 70 35 64 34 -49 -10 -48 -18 -85 -37
-82 -42 2 -5 -7 -11 -22 -15 -23 -6 -24 -8 -9 -16 9 -6 28 -8 41 -5 24 4 24 3
8 -14 -16 -18 -16 -19 12 -20 17 -1 22 -3 12 -6 -10 -2 -18 -9 -18 -15 0 -6
-6 -5 -15 2 -9 7 -18 11 -20 8 -6 -6 162 -103 196 -113 13 -4 61 -24 106 -45
45 -22 103 -45 130 -53 44 -13 50 -13 67 4 12 12 16 25 12 36 -6 14 -5 16 5 6
19 -19 69 -17 69 3 0 14 3 14 15 4 17 -14 21 -35 4 -24 -7 4 -9 -1 -7 -12 3
-13 11 -18 26 -17 12 2 21 -2 19 -9 -3 -19 69 -28 173 -22 97 6 297 48 405 86
133 46 442 216 625 344 46 32 98 60 162 88 20 9 40 22 44 28 5 7 3 8 -6 3 -9
-5 -11 -4 -6 4 4 6 11 9 15 6 5 -2 19 7 31 20 13 14 27 25 32 25 22 0 90 63
330 305 l257 260 1 228 c0 163 -3 227 -11 227 -7 0 -17 7 -23 15 -12 15 -104
24 -124 11 -7 -4 -12 -2 -12 4 0 6 -5 8 -11 5 -5 -4 -21 -8 -35 -10 -21 -2
-68 -30 -114 -68 -8 -6 -27 -29 -42 -49 -16 -20 -38 -40 -50 -43 -13 -4 -33
-17 -45 -28 -13 -11 -25 -18 -28 -16 -2 3 28 36 66 74 39 39 79 86 89 106 l19
35 -50 0 c-27 -1 -45 -2 -39 -4 10 -4 2 -32 -10 -32 -5 0 -10 7 -12 15 -2 13
-16 9 -73 -18 -38 -19 -81 -37 -96 -40 -14 -4 -45 -20 -70 -37 -24 -16 -51
-30 -59 -30 -27 0 -141 63 -127 72 8 5 1 10 -19 14 l-32 6 4 102 c2 55 6 111
9 123 3 12 1 24 -5 28 -5 3 -6 13 -3 22 4 10 2 14 -4 10 -5 -3 -15 16 -22 43
-7 28 -18 53 -24 57 -7 5 -39 13 -72 19 l-60 12 57 1 c31 0 59 5 63 11 9 15
-47 118 -115 210 -66 88 -82 123 -70 155 14 40 20 75 13 74 -5 0 -39 -16 -78
-35z m-6 -103 c24 -33 26 -52 9 -69 -9 -9 -17 -7 -35 10 -23 22 -28 43 -17 72
9 23 20 20 43 -13z m114 -308 c-13 -2 -33 -2 -45 0 -13 2 -3 4 22 4 25 0 35
-2 23 -4z m-175 -77 c-11 -26 -13 -26 -25 -10 -11 15 -10 21 4 36 23 25 37 8
21 -26z m137 -95 c17 -19 57 -47 90 -62 45 -20 56 -29 43 -34 -19 -8 -119 49
-154 87 -22 24 -54 81 -54 95 0 4 11 -5 23 -22 12 -16 36 -45 52 -64z m524
-318 c-19 -25 -32 -33 -41 -27 -9 6 31 43 46 44 5 0 2 -8 -5 -17z m-254 -253
c-3 -5 -10 -10 -16 -10 -5 0 -9 5 -9 10 0 6 7 10 16 10 8 0 12 -4 9 -10z
m-510 -191 c11 -16 1 -19 -13 -3 -7 8 -8 14 -3 14 5 0 13 -5 16 -11z m483
-101 c-54 -52 -99 -87 -122 -94 -32 -10 -35 -9 -23 4 12 16 218 171 227 172 2
0 -34 -37 -82 -82z m-1158 -282 c0 -2 -9 -6 -20 -9 -11 -3 -20 -1 -20 4 0 5 9
9 20 9 11 0 20 -2 20 -4z m-391 -80 c-3 -3 -11 5 -18 17 -13 21 -12 21 5 5 10
-10 16 -20 13 -22z m26 -46 c21 -41 18 -60 -5 -31 -18 21 -28 61 -15 61 2 0
11 -13 20 -30z m912 -36 c-3 -3 -12 -4 -19 -1 -8 3 -5 6 6 6 11 1 17 -2 13 -5z
m-163 -157 c-5 -14 -44 -41 -44 -30 0 10 32 43 41 43 5 0 6 -6 3 -13z m-64
-67 c0 -5 -7 -10 -16 -10 -8 0 -12 5 -9 10 3 6 10 10 16 10 5 0 9 -4 9 -10z
m-121 -166 c2 -2 -10 -4 -28 -4 -27 0 -34 -5 -46 -34 -9 -21 -22 -35 -32 -35
-10 0 -33 -3 -50 -7 -29 -5 -33 -4 -33 14 0 16 13 27 48 41 26 12 54 25 62 30
13 8 68 4 79 -5z"/>
<path d="M10276 7271 l-59 -58 56 -11 c31 -6 74 -20 96 -31 40 -19 41 -19 81
1 22 11 47 17 56 14 15 -6 15 -8 0 -25 -13 -15 -14 -20 -4 -23 11 -4 11 -8 0
-21 -11 -13 -10 -17 5 -25 23 -12 43 -5 44 16 0 14 2 14 6 2 3 -8 10 -19 15
-25 5 -5 16 -19 24 -30 14 -19 14 -19 3 5 -32 65 -59 99 -76 94 -17 -5 -17 -4
-1 7 15 12 13 17 -19 58 -31 42 -133 112 -158 110 -5 -1 -37 -27 -69 -58z"/>
<path d="M4642 7181 c-11 -7 -11 -9 1 -14 9 -3 21 1 27 9 10 11 10 14 -1 14
-8 0 -20 -4 -27 -9z"/>
<path d="M3030 7094 c0 -11 -6 -14 -20 -9 -11 4 -20 3 -19 -2 4 -22 -2 -34
-13 -27 -7 4 -3 -6 8 -22 36 -51 39 -60 14 -39 -14 11 5 -16 42 -60 36 -44 68
-78 71 -75 8 7 87 -71 82 -80 -3 -4 5 -16 18 -26 l22 -19 -19 23 c-11 12 -14
22 -9 22 6 0 16 -7 24 -16 7 -8 25 -22 41 -30 l29 -15 -26 41 c-43 68 -112
211 -131 272 -9 31 -21 55 -25 52 -4 -2 -11 0 -14 6 -4 6 -15 8 -26 5 -11 -4
-19 -2 -19 4 0 6 -7 11 -15 11 -8 0 -15 -7 -15 -16z"/>
<path d="M10422 7098 c3 -7 20 -14 39 -16 l34 -2 -25 15 c-31 18 -53 19 -48 3z"/>
<path d="M3181 7076 c-46 -55 118 -369 219 -421 33 -17 40 -13 89 59 16 23 63
73 105 110 91 81 94 102 4 25 -74 -64 -101 -92 -130 -139 -34 -54 -44 -62 -58
-46 -8 11 -7 18 8 33 11 10 28 32 38 48 10 17 27 36 37 44 10 7 16 19 13 27
-8 21 4 44 22 44 12 0 9 5 -8 17 -14 10 -28 17 -32 15 -4 -1 -15 9 -23 22 -10
15 -24 23 -35 21 -17 -3 -37 22 -25 33 3 3 5 0 5 -6 0 -7 5 -12 12 -12 6 0 4
7 -5 18 -10 10 -17 25 -17 34 0 15 -40 39 -63 37 -7 0 -3 -4 8 -9 19 -8 19 -9
-3 -9 -12 -1 -25 6 -29 15 -3 8 -12 13 -20 10 -9 -4 -11 -2 -7 6 5 7 -1 9 -19
6 -15 -3 -24 -2 -22 2 2 4 -7 12 -21 19 -31 14 -29 14 -43 -3z m29 -4 c0 -5
-7 -9 -15 -9 -8 0 -12 4 -9 9 3 4 9 8 15 8 5 0 9 -4 9 -8z m177 -94 c-3 -7 -5
-2 -5 12 0 14 2 19 5 13 2 -7 2 -19 0 -25z m63 -58 c0 -5 -5 -10 -11 -10 -5 0
-7 5 -4 10 3 6 8 10 11 10 2 0 4 -4 4 -10z"/>
<path d="M10240 7086 c0 -5 28 -38 61 -74 34 -37 73 -84 87 -104 13 -21 26
-38 29 -38 5 0 -15 38 -46 85 -26 40 -131 145 -131 131z"/>
<path d="M10578 7018 c23 -26 42 -54 42 -63 0 -8 4 -15 9 -15 5 0 14 -14 22
-32 7 -17 14 -27 16 -21 2 6 -4 28 -13 50 -9 21 -18 46 -19 56 -1 10 -8 23
-15 30 -10 10 -10 8 -1 -10 20 -39 12 -38 -36 7 l-47 45 42 -47z"/>
<path d="M4159 6976 c-2 -3 -33 -6 -68 -7 -36 -1 -69 -8 -76 -16 -17 -16 -28
-17 -20 0 4 6 -3 1 -14 -13 -11 -14 -21 -31 -21 -37 0 -7 -7 -13 -16 -13 -8 0
-13 -4 -10 -9 4 -5 -12 0 -35 11 -40 19 -42 19 -62 1 -14 -12 -18 -13 -12 -3
7 12 6 13 -7 3 -8 -7 -18 -10 -21 -6 -4 3 -7 1 -7 -6 0 -8 -7 -11 -15 -7 -8 3
-14 0 -12 -6 1 -7 -7 -13 -18 -13 -11 -1 -28 -5 -37 -9 -9 -4 -22 -5 -28 -1
-17 10 -60 -24 -143 -112 -74 -79 -90 -112 -45 -97 11 3 50 7 86 8 89 3 197
46 340 136 107 67 282 149 319 151 12 0 7 6 -14 16 -18 9 -33 20 -33 25 0 8
-23 11 -31 4z m51 -31 c0 -2 -7 -5 -15 -9 -9 -3 -15 0 -15 9 0 9 6 12 15 9 8
-4 15 -7 15 -9z m-335 -55 c3 -6 -1 -7 -9 -4 -18 7 -21 14 -7 14 6 0 13 -4 16
-10z"/>
<path d="M3536 6845 c-11 -8 -15 -15 -9 -15 6 0 16 7 23 15 16 19 11 19 -14 0z"/>
<path d="M3120 6847 c0 -2 15 -16 33 -33 l32 -29 -29 33 c-28 30 -36 37 -36
29z"/>
<path d="M4243 6692 c-15 -9 -76 -142 -69 -149 6 -6 65 57 107 115 l30 42 -28
0 c-15 0 -33 -4 -40 -8z"/>
<path d="M3987 6676 c-33 -6 -57 -13 -54 -16 3 -3 -16 -4 -41 -2 -51 4 -190
-22 -205 -37 -15 -15 38 -25 73 -13 25 9 31 8 39 -7 10 -18 221 -90 276 -94
24 -2 34 8 81 83 30 47 54 88 54 93 0 11 -157 6 -223 -7z"/>
<path d="M3757 6564 c-23 -30 -22 -56 4 -89 17 -21 19 -29 9 -35 -7 -5 -19 -6
-27 -3 -19 7 -16 -14 3 -25 14 -8 13 -13 -12 -37 -16 -15 -44 -33 -61 -41
l-33 -14 40 -36 c22 -20 37 -41 33 -48 -3 -6 -3 -8 2 -4 4 4 14 1 21 -7 8 -8
22 -11 31 -8 11 5 14 3 8 -6 -6 -10 0 -12 25 -6 23 5 30 4 26 -4 -7 -11 11
-15 48 -11 13 1 16 -2 10 -12 -6 -10 -5 -10 9 1 15 12 38 45 144 200 38 56 30
66 -54 63 -88 -5 -143 12 -143 44 0 12 -9 33 -20 47 -11 14 -20 30 -20 35 0
21 -26 18 -43 -4z m28 -4 c-3 -5 -12 -10 -18 -10 -7 0 -6 4 3 10 19 12 23 12
15 0z"/>
<path d="M3590 6565 l-35 -14 33 3 c18 2 38 8 44 14 15 15 2 14 -42 -3z"/>
<path d="M3661 6559 c-23 -19 -23 -19 -2 -19 12 0 24 7 28 15 9 24 0 25 -26 4z"/>
<path d="M3649 6287 c14 -18 51 -42 51 -33 0 3 -15 15 -32 27 -24 17 -29 18
-19 6z"/>
<path d="M4123 6274 c9 -17 23 -37 33 -44 9 -8 4 3 -10 25 -35 51 -42 57 -23
19z"/>
<path d="M4049 6278 c-1 -7 -1 -19 0 -25 2 -17 -7 -16 -26 3 -15 14 -17 14
-27 -3 -5 -10 -8 -18 -6 -18 2 0 -9 -13 -23 -29 -15 -16 -26 -34 -24 -40 5
-16 99 -30 107 -15 6 8 9 8 13 -2 4 -12 7 -11 16 1 6 9 7 16 1 18 -6 2 -10 8
-10 13 0 6 5 7 12 3 8 -5 9 -2 3 12 -4 10 -8 27 -9 36 -1 10 -5 20 -8 24 -4 3
-4 12 -1 20 3 8 0 14 -6 14 -6 0 -12 -6 -12 -12z"/>
<path d="M4215 6180 c10 -11 20 -20 23 -20 3 0 -3 9 -13 20 -10 11 -20 20 -23
20 -3 0 3 -9 13 -20z"/>
<path d="M10405 6125 c-29 -8 -40 -13 -25 -13 40 -1 107 13 90 19 -8 3 -37 0
-65 -6z"/>
<path d="M4155 6079 c-27 -11 -52 -23 -55 -26 -9 -9 63 9 110 28 35 14 39 18
20 18 -14 0 -47 -9 -75 -20z"/>
<path d="M4229 6066 c-3 -3 -14 -7 -25 -9 -10 -2 -32 -9 -47 -15 -16 -7 -34
-12 -41 -12 -7 0 -27 -11 -46 -25 -37 -27 -45 -30 -35 -15 3 6 -1 7 -9 4 -9
-3 -13 -11 -9 -18 3 -6 3 -8 -2 -4 -4 4 -22 -1 -39 -12 -17 -10 -45 -26 -61
-35 l-30 -16 48 3 c50 3 55 0 35 -21 -11 -11 -9 -11 10 -2 19 10 22 9 22 -9 0
-25 12 -26 34 -2 9 11 35 25 59 32 23 7 54 17 69 22 15 6 31 10 35 10 4 0 14
5 22 11 10 9 17 7 28 -8 13 -19 15 -19 27 -2 7 9 19 17 25 17 7 0 9 5 6 10 -3
6 4 24 16 41 15 21 18 34 11 41 -12 12 -94 23 -103 14z"/>
<path d="M4025 6034 c-78 -30 -175 -78 -175 -87 0 -5 6 -5 13 1 7 6 35 16 62
23 28 7 59 18 70 25 11 7 38 22 60 33 46 24 29 27 -30 5z"/>
<path d="M10495 5981 c-3 -5 -1 -12 5 -16 5 -3 10 1 10 9 0 18 -6 21 -15 7z"/>
<path d="M9535 5940 c4 -6 11 -8 16 -5 14 9 11 15 -7 15 -8 0 -12 -5 -9 -10z"/>
<path d="M4236 5903 c-6 -14 -5 -15 5 -6 7 7 10 15 7 18 -3 3 -9 -2 -12 -12z"/>
<path d="M4115 5900 c-4 -6 -11 -8 -16 -5 -5 4 -9 1 -9 -4 0 -6 9 -11 20 -11
11 0 20 7 20 15 0 17 -6 19 -15 5z"/>
<path d="M4100 5853 c-13 -15 -12 -16 4 -10 10 4 20 7 22 7 2 0 4 5 4 10 0 15
-13 12 -30 -7z"/>
<path d="M4230 5830 c-13 -8 -12 -10 3 -10 9 0 17 5 17 10 0 12 -1 12 -20 0z"/>
<path d="M3960 5776 c0 -2 8 -10 18 -17 15 -13 16 -12 3 4 -13 16 -21 21 -21
13z"/>
<path d="M4090 5710 c-11 -21 -4 -25 24 -14 8 3 12 12 9 20 -7 20 -20 17 -33
-6z"/>
<path d="M4042 5695 c15 -16 29 -27 31 -24 3 2 -10 15 -27 28 l-31 24 27 -28z"/>
<path d="M9057 5618 c-7 -4 -20 -5 -29 -2 -10 3 -18 0 -18 -6 0 -8 -8 -10 -21
-7 -13 3 -19 1 -16 -6 2 -7 16 -11 32 -9 19 2 26 -1 23 -10 -3 -7 -17 -13 -31
-13 -16 1 -27 -5 -27 -13 0 -9 -7 -11 -21 -7 -35 11 41 -65 135 -136 l81 -62
-57 55 c-47 45 -55 57 -46 72 8 15 8 17 -3 11 -11 -6 -11 -5 -2 5 12 13 37 5
28 -10 -6 -10 42 -7 52 3 14 15 25 6 12 -10 -8 -10 -9 -14 -2 -10 6 4 14 3 18
-3 7 -12 25 -4 25 11 0 6 -4 7 -10 4 -5 -3 -10 -2 -10 3 0 5 11 10 25 10 25 0
25 -1 8 -21 -13 -14 -15 -21 -5 -24 6 -3 12 -11 12 -19 0 -8 7 -14 16 -14 9 0
12 -5 8 -12 -4 -7 -3 -8 4 -4 7 4 12 16 12 26 0 11 11 27 25 36 14 9 25 22 25
29 0 13 36 31 52 27 4 -1 5 5 2 13 -4 8 -1 15 7 15 7 0 9 3 6 6 -4 4 -13 1
-22 -6 -10 -8 -15 -9 -15 -1 0 6 -8 11 -17 11 -13 0 -14 -3 -5 -12 19 -19 14
-26 -13 -20 -14 2 -25 7 -25 11 0 3 25 25 56 48 l55 42 -93 1 c-51 0 -122 2
-156 3 -35 1 -69 -1 -75 -5z m253 -22 c0 -3 -4 -8 -10 -11 -5 -3 -10 -1 -10 4
0 6 5 11 10 11 6 0 10 -2 10 -4z m-35 -36 c-3 -5 -14 -10 -23 -9 -14 0 -13 2
3 9 27 11 27 11 20 0z m-225 -93 c0 -7 -11 2 -25 18 -32 39 -32 58 0 22 14
-15 25 -33 25 -40z"/>
<path d="M9558 5613 c7 -3 16 -2 19 1 4 3 -2 6 -13 5 -11 0 -14 -3 -6 -6z"/>
<path d="M12045 5539 c-60 -43 -158 -108 -217 -144 -106 -65 -126 -81 -114
-92 19 -19 386 134 434 181 9 8 12 33 10 73 l-3 60 -110 -78z"/>
<path d="M9436 5594 c-3 -8 -10 -13 -14 -10 -5 3 -18 -2 -28 -10 -18 -15 -18
-15 -1 -10 13 4 20 0 24 -14 3 -11 9 -20 14 -20 18 0 47 42 42 61 -6 23 -29
25 -37 3z"/>
<path d="M9603 5603 c9 -2 23 -2 30 0 6 3 -1 5 -18 5 -16 0 -22 -2 -12 -5z"/>
<path d="M7590 5525 c37 -34 55 -57 48 -61 -7 -4 -13 -3 -15 3 -3 8 -14 8 -35
2 -17 -4 -35 -6 -39 -3 -5 3 -6 -2 -3 -10 3 -9 11 -13 17 -9 6 4 8 0 4 -10 -3
-10 -2 -17 2 -17 5 0 14 -13 19 -29 5 -15 26 -38 46 -50 20 -13 36 -29 36 -37
0 -7 13 -20 30 -29 37 -19 41 -19 33 2 -7 17 -6 17 20 0 19 -12 25 -13 21 -3
-4 11 3 12 35 6 26 -4 39 -3 38 3 -1 6 8 13 21 16 21 5 12 14 -69 71 -103 72
-136 92 -100 60 13 -11 21 -23 18 -26 -6 -7 -67 46 -67 58 0 5 6 6 13 2 6 -3
-17 21 -53 54 -36 34 -68 61 -72 62 -4 0 19 -25 52 -55z m211 -171 c10 -12 8
-14 -10 -11 -30 5 -46 22 -22 24 11 1 25 -5 32 -13z"/>
<path d="M9385 5540 c-3 -5 -3 -10 1 -10 4 0 -1 -10 -12 -22 l-19 -22 27 20
c14 10 22 21 17 22 -5 2 -7 8 -3 13 3 5 3 9 0 9 -3 0 -8 -4 -11 -10z"/>
<path d="M9453 5471 c-12 -10 -19 -21 -16 -25 3 -3 13 3 22 13 9 10 23 20 31
24 13 5 13 5 0 6 -8 0 -25 -8 -37 -18z"/>
<path d="M9520 5479 c0 -5 6 -8 13 -6 6 1 11 -4 9 -12 -3 -12 0 -12 12 -1 23
18 20 28 -9 28 -14 0 -25 -4 -25 -9z"/>
<path d="M4005 5450 c-13 -5 -14 -9 -5 -9 8 0 24 4 35 9 13 5 14 9 5 9 -8 0
-24 -4 -35 -9z"/>
<path d="M9575 5449 c-5 -4 -20 -18 -33 -29 -28 -26 -63 -20 -41 7 13 15 12
15 -7 5 -11 -6 -27 -18 -34 -27 -17 -20 -56 -42 -46 -26 5 7 1 9 -8 5 -9 -3
-13 -10 -10 -15 3 -5 3 -9 1 -9 -3 0 -22 -7 -43 -16 -39 -15 -39 -15 21 40 72
67 62 74 -15 11 -30 -25 -59 -45 -65 -45 -5 0 2 7 15 17 37 24 80 65 80 76 0
5 -6 4 -13 -2 -8 -6 -17 -9 -20 -6 -4 3 -5 2 -2 -2 9 -11 -33 -33 -51 -26 -13
5 -16 3 -11 -10 5 -14 2 -16 -20 -11 -18 5 -24 4 -19 -5 4 -6 12 -9 17 -6 5 4
9 2 9 -4 0 -5 -4 -13 -10 -16 -5 -3 -14 -14 -20 -24 -9 -17 -6 -18 26 -11 29
7 34 5 30 -6 -6 -17 6 -18 21 -3 9 9 10 6 6 -12 -5 -20 -3 -22 8 -11 7 6 20
12 29 12 8 0 26 9 40 20 31 24 47 26 29 3 -13 -17 -13 -17 6 -1 11 9 32 19 46
23 32 8 70 41 88 77 15 29 13 42 -4 27z m-105 -93 c0 -3 -4 -8 -10 -11 -5 -3
-10 -1 -10 4 0 6 5 11 10 11 6 0 10 -2 10 -4z"/>
<path d="M9280 5440 c0 -5 5 -10 11 -10 5 0 7 5 4 10 -3 6 -8 10 -11 10 -2 0
-4 -4 -4 -10z"/>
<path d="M8996 5418 c5 -8 2 -9 -10 -5 -12 5 -15 3 -9 -6 4 -6 9 -21 10 -31 5
-28 12 -33 24 -16 8 12 9 11 5 -5 -5 -15 4 -30 31 -56 61 -55 97 -85 90 -73
-4 7 0 15 9 18 10 4 13 2 8 -6 -5 -7 -2 -9 9 -5 11 4 14 2 10 -9 -6 -16 12
-20 22 -4 6 10 51 -6 74 -28 7 -7 20 -11 28 -8 8 3 11 2 8 -4 -8 -13 41 -43
57 -34 7 4 10 4 6 -1 -4 -4 14 -24 40 -45 62 -48 89 -63 97 -50 3 5 -8 16 -26
25 -17 9 -28 19 -25 23 10 9 61 -34 59 -50 -2 -10 9 -15 35 -16 32 -3 35 -1
22 11 -23 21 -134 82 -126 69 4 -7 2 -12 -4 -12 -7 0 -14 8 -16 18 -3 9 -51
45 -107 80 -56 35 -153 101 -215 148 -62 46 -110 79 -106 72z m134 -168 c0 -5
-2 -10 -4 -10 -3 0 -8 5 -11 10 -3 6 -1 10 4 10 6 0 11 -4 11 -10z m160 -50
c0 -5 -2 -10 -4 -10 -3 0 -8 5 -11 10 -3 6 -1 10 4 10 6 0 11 -4 11 -10z"/>
<path d="M9610 5420 c0 -5 5 -10 10 -10 6 0 10 5 10 10 0 6 -4 10 -10 10 -5 0
-10 -4 -10 -10z"/>
<path d="M12126 5421 c-3 -5 -18 -12 -33 -16 -15 -3 -75 -29 -133 -57 -137
-65 -195 -88 -224 -88 -22 0 -122 -25 -404 -99 -62 -17 -116 -32 -120 -35 -11
-6 -56 -16 -111 -23 -34 -5 -42 -3 -36 7 8 13 -18 10 -100 -13 l-40 -10 30 -6
c34 -7 26 -16 -25 -25 -27 -6 -32 -5 -20 4 12 9 10 10 -10 4 -14 -3 -36 -12
-50 -19 -38 -18 -295 -101 -385 -124 -44 -11 -108 -23 -142 -27 -35 -3 -63
-10 -63 -14 0 -14 183 -44 305 -50 l120 -6 -115 -2 c-63 -1 -133 3 -155 7 -22
5 -85 19 -140 30 -60 13 -175 26 -290 33 -146 9 -194 15 -209 27 -11 9 -16 10
-12 4 10 -17 4 -17 -122 9 -59 12 -113 27 -119 34 -16 16 -101 47 -171 64 -40
9 -57 9 -65 1 -16 -16 -30 -14 -23 4 3 8 1 15 -3 15 -5 0 -11 -6 -14 -12 -6
-20 4 -47 16 -42 7 2 23 -6 37 -17 l25 -20 -32 16 c-18 8 -33 12 -33 8 0 -4
-5 -2 -12 5 -15 15 -32 16 -23 2 6 -10 -13 -14 -51 -11 -12 1 -27 -5 -33 -13
-10 -12 -5 -21 23 -50 20 -19 36 -38 36 -41 0 -14 -64 30 -97 66 -19 21 -42
39 -49 39 -8 0 -14 4 -14 8 0 12 -31 11 -180 -4 -74 -7 -181 -16 -238 -20 -57
-4 -98 -10 -91 -15 16 -10 -55 -24 -78 -15 -9 4 -84 -3 -167 -14 -165 -22
-346 -45 -471 -60 -44 -5 -125 -17 -180 -26 -55 -9 -112 -16 -127 -17 -17 0
-24 -5 -21 -14 3 -7 -3 -15 -13 -19 -11 -3 -31 -12 -46 -20 -32 -17 -52 -18
-42 -2 4 7 3 8 -4 4 -15 -9 -15 -9 7 -34 10 -12 21 -19 25 -15 3 3 6 3 6 -1 0
-14 -23 -50 -44 -69 -12 -10 -15 -15 -7 -11 9 5 8 -2 -5 -19 -10 -15 -22 -27
-27 -27 -4 0 -25 12 -47 26 -22 15 -43 24 -47 21 -3 -4 3 -10 13 -14 45 -16
74 -47 75 -77 0 -30 1 -30 11 -8 13 26 30 28 49 6 7 -9 32 -25 55 -35 51 -24
79 -55 88 -94 22 -98 25 -119 20 -124 -3 -3 -9 0 -13 8 -5 7 -61 23 -125 36
-64 13 -120 26 -125 29 -10 6 -46 -84 -57 -139 -8 -43 -26 -53 -67 -37 -58 22
-36 6 72 -50 60 -32 110 -55 113 -53 3 3 19 0 37 -6 18 -6 30 -13 28 -15 -2
-3 -16 0 -31 5 -14 6 -26 9 -26 6 0 -11 256 -125 292 -129 9 -1 24 -9 34 -17
15 -13 16 -12 10 9 -4 12 -5 22 -3 22 2 0 28 -31 58 -70 30 -38 57 -69 62 -70
4 0 12 12 17 26 10 25 30 25 30 -1 0 -12 6 -12 36 1 20 8 46 14 57 12 19 -3
16 -7 -22 -35 -32 -24 -48 -30 -57 -22 -9 8 -11 6 -8 -9 3 -10 -2 -24 -10 -31
-9 -8 -16 -19 -16 -25 0 -13 -54 -66 -67 -66 -5 0 -13 -11 -19 -23 l-9 -24
-80 17 c-44 9 -93 20 -110 24 -21 5 -25 4 -15 -2 8 -6 57 -20 108 -32 77 -19
92 -25 87 -39 -29 -74 -89 -291 -82 -298 3 -2 8 9 11 24 13 50 78 207 94 226
11 12 30 17 71 17 77 0 322 -37 363 -54 18 -8 48 -20 67 -27 l33 -12 -8 -56
c-4 -31 -9 -126 -10 -211 l-1 -154 -44 -38 c-24 -21 -63 -51 -86 -66 -94 -60
-34 -39 124 43 110 57 168 82 173 75 4 -7 12 1 20 19 7 17 16 31 20 31 4 0 27
-24 51 -52 35 -42 44 -60 45 -92 0 -38 0 -38 -17 -18 -9 12 -19 19 -22 16 -9
-10 15 -54 30 -54 7 0 18 -11 22 -24 5 -13 17 -26 25 -29 9 -4 16 -15 16 -26
0 -10 8 -21 19 -24 17 -4 17 -2 -2 44 -11 26 -25 47 -31 46 -6 -1 -12 8 -14
21 -5 32 19 27 47 -11 14 -17 67 -70 118 -117 51 -47 93 -88 93 -91 0 -3 -6
-6 -12 -7 -7 0 -29 -3 -48 -7 -31 -6 -43 -1 -107 46 -40 29 -73 58 -73 64 0
12 -38 51 -43 44 -16 -22 -25 -59 -16 -65 6 -4 15 0 20 7 6 10 9 6 9 -14 0
-24 -3 -27 -21 -22 -15 5 -22 2 -25 -12 -4 -14 -15 -19 -45 -20 -36 -2 -42 1
-55 30 l-14 32 2 -35 3 -35 -50 -3 c-64 -5 -129 9 -288 60 -170 55 -175 59
-101 86 75 27 102 46 84 57 -9 6 -11 4 -5 -5 6 -10 4 -12 -9 -7 -11 5 -40 -6
-79 -27 l-62 -35 -60 32 c-33 18 -104 65 -157 105 -103 76 -102 73 -98 161 1
29 -2 41 -9 37 -6 -4 -11 -20 -11 -36 0 -57 -9 -61 -48 -23 -20 19 -46 39 -56
45 -18 10 -17 8 2 -19 11 -16 41 -48 66 -71 35 -33 46 -50 46 -73 0 -17 4 -28
9 -25 9 6 21 -49 21 -97 0 -15 9 -45 20 -66 16 -33 17 -40 5 -45 -8 -3 -15
-13 -15 -22 0 -12 6 -15 24 -10 20 5 27 -1 51 -47 35 -65 94 -149 111 -160 8
-4 14 -13 14 -18 0 -6 -5 -7 -10 -4 -19 12 88 -145 135 -198 41 -47 61 -88 34
-71 -7 4 -10 1 -7 -7 4 -12 49 -42 106 -71 12 -6 22 -15 22 -19 0 -9 -243 114
-276 140 -11 9 -2 -1 20 -21 22 -21 53 -43 68 -49 32 -13 35 -24 11 -38 -11
-6 -13 -11 -5 -11 17 0 5 -20 -13 -20 -7 0 -27 -13 -43 -29 -42 -42 -144 -71
-282 -80 -63 -5 -107 -9 -97 -10 9 0 17 -6 17 -12 0 -13 -45 -8 -195 23 -148
30 -211 52 -340 118 -104 53 -126 56 -75 12 11 -10 12 -12 1 -6 -13 6 -13 5 0
-13 36 -51 98 -113 122 -122 82 -32 196 -43 427 -42 129 1 269 4 310 7 l75 6
24 -64 c34 -87 169 -223 290 -289 71 -40 80 -48 62 -54 -12 -4 -28 -2 -36 5
-8 6 -19 9 -26 5 -6 -4 -15 -2 -19 5 -5 8 -20 10 -49 5 -23 -4 -40 -9 -37 -13
3 -3 1 -11 -5 -19 -9 -9 -8 -13 0 -13 6 0 13 1 16 3 10 5 32 -38 28 -57 -2
-13 2 -9 11 9 8 17 15 24 15 16 1 -8 7 -11 17 -7 8 3 13 2 9 -3 -3 -5 1 -12 7
-14 9 -4 8 -6 -3 -6 -8 -1 -20 4 -27 11 -9 9 -12 6 -12 -14 0 -14 -7 -29 -16
-32 -8 -3 -13 -2 -10 2 7 11 -30 42 -50 42 -8 0 -12 -5 -9 -10 4 -6 -3 -8 -17
-6 -13 3 -23 5 -23 6 0 1 -11 3 -25 6 -14 2 -31 12 -37 21 -7 9 -16 13 -20 9
-5 -4 0 -13 10 -20 18 -14 24 -32 7 -21 -5 3 -10 1 -10 -4 0 -6 8 -11 18 -11
14 0 15 -2 2 -10 -12 -8 -13 -12 -2 -19 11 -6 9 -10 -7 -14 -12 -3 -19 -2 -17
2 9 13 -11 32 -36 35 -20 2 -24 -1 -20 -16 2 -10 13 -18 23 -18 21 0 25 -15 9
-25 -8 -5 -8 -11 0 -20 9 -11 6 -13 -12 -9 -13 2 -17 2 -10 -2 14 -7 16 -42 3
-63 -5 -7 -13 -11 -19 -7 -11 7 -38 -21 -28 -31 3 -3 6 -2 6 4 0 5 6 10 13 10
8 0 14 -6 14 -14 0 -7 -9 -13 -19 -13 -11 0 -17 -3 -15 -7 3 -5 -1 -13 -8 -20
-11 -10 -15 -10 -18 0 -4 9 -6 9 -6 -1 -1 -7 -5 -11 -10 -8 -5 3 -15 -2 -22
-11 -12 -15 -12 -16 3 -10 12 4 15 2 11 -9 -3 -7 -11 -14 -18 -14 -8 0 -17 -9
-20 -20 -3 -11 -15 -25 -26 -31 -12 -6 -18 -17 -15 -25 3 -8 1 -14 -4 -14 -6
0 -10 5 -10 10 0 6 -5 10 -11 10 -6 0 -9 -7 -5 -15 3 -8 1 -15 -4 -15 -6 0
-10 -7 -10 -15 0 -9 -6 -12 -16 -8 -13 5 -13 7 -2 14 10 7 9 9 -4 9 -10 0 -18
5 -18 11 0 7 9 9 21 6 13 -3 19 -1 16 6 -3 7 -11 10 -18 8 -8 -2 -22 -3 -31
-3 -10 0 -18 -5 -18 -11 0 -7 -4 -6 -9 3 -6 8 -7 19 -4 25 4 5 2 6 -3 2 -5 -5
-9 -14 -9 -20 0 -7 -10 -12 -23 -11 -12 0 -22 -3 -22 -8 0 -4 7 -8 15 -8 11 0
9 -6 -7 -22 -21 -21 -21 -23 -5 -26 15 -3 16 -6 5 -20 -12 -15 -11 -16 4 -4
15 12 20 11 35 -3 16 -17 16 -17 -4 -11 -13 4 -25 1 -33 -9 -8 -10 -9 -15 -1
-15 6 0 11 6 11 13 0 8 3 8 9 -2 6 -9 6 -22 0 -33 -7 -14 -6 -16 6 -12 8 4 15
10 15 15 0 5 5 9 11 9 5 0 8 -4 5 -9 -4 -5 -1 -11 6 -13 8 -3 8 -9 0 -24 -10
-18 -11 -18 -17 -1 -10 25 -27 21 -21 -5 l6 -23 -11 23 c-15 27 -26 28 -34 2
-6 -20 -35 -28 -35 -10 0 6 5 9 12 8 6 -2 14 5 16 15 2 9 -2 17 -8 17 -6 0 -9
-4 -5 -9 3 -5 -5 -11 -17 -13 -31 -4 -29 -30 2 -39 l25 -6 -28 -12 c-16 -6
-33 -11 -39 -11 -6 0 -6 -6 2 -15 11 -13 10 -15 -6 -9 -18 5 -18 5 -1 -9 14
-11 15 -16 5 -21 -7 -3 -1 -3 13 0 15 3 29 2 32 -4 6 -8 0 -10 -40 -13 -27 -2
-43 -19 -42 -43 0 -18 2 -18 10 5 7 20 16 26 34 25 30 -1 30 -2 6 -32 -13 -17
-21 -20 -24 -12 -4 10 -6 10 -6 1 -1 -7 -8 -13 -16 -13 -8 0 -15 -6 -15 -12 0
-9 -4 -8 -10 2 -6 10 -10 11 -10 3 0 -7 -7 -13 -15 -13 -8 0 -15 -4 -15 -10 0
-5 6 -10 14 -10 8 0 17 -4 20 -8 3 -5 -17 -7 -44 -4 -31 3 -50 1 -50 -6 0 -6
11 -9 24 -8 14 2 30 -1 38 -5 10 -7 10 -9 -2 -10 -46 -3 -87 4 -99 19 -12 15
-12 14 -6 -7 5 -16 4 -21 -4 -17 -6 4 -11 2 -11 -3 0 -6 6 -11 13 -12 6 0 3
-4 -8 -9 -18 -8 -18 -9 -2 -9 10 -1 16 -5 13 -10 -3 -5 6 -12 21 -16 21 -5 31
-1 50 19 25 28 44 36 23 11 -10 -12 -10 -15 0 -15 16 0 7 -10 -12 -14 -7 -2
-21 -6 -30 -11 -10 -4 -25 -5 -33 -1 -8 3 -15 1 -15 -4 0 -6 10 -10 23 -10 18
0 19 -2 7 -10 -12 -8 -10 -10 10 -10 l25 -1 -24 -19 -23 -20 23 0 c25 0 65 20
42 20 -21 0 -14 16 12 28 24 11 55 7 55 -7 0 -3 -26 -22 -57 -40 -32 -19 -60
-37 -63 -41 -3 -4 -20 -15 -37 -25 -18 -11 -33 -23 -33 -27 0 -4 -7 -8 -17 -8
-9 0 -13 -3 -10 -6 4 -4 -18 -33 -48 -66 -66 -71 -132 -163 -174 -242 -17 -32
-31 -61 -31 -63 0 -2 14 -3 31 -1 28 3 33 9 60 78 37 95 128 226 153 222 10
-2 23 2 31 8 9 8 14 7 18 -3 3 -9 16 -12 38 -9 22 3 36 0 44 -11 10 -14 13
-13 24 5 11 18 11 20 -4 15 -9 -4 -14 -3 -10 3 9 14 36 12 34 -2 -3 -26 1 -49
9 -45 4 3 8 -26 9 -65 1 -38 -1 -67 -4 -65 -3 3 -17 -5 -31 -19 -15 -13 -33
-24 -40 -24 -7 0 -15 -6 -18 -14 -3 -8 -14 -13 -25 -11 -10 2 -19 -2 -19 -8 0
-7 -17 -22 -38 -34 l-37 -22 268 -1 c201 0 267 3 267 12 0 9 3 9 12 0 9 -9
523 -12 2250 -12 l2238 0 0 2715 c0 2357 -2 2715 -14 2715 -8 0 -17 -4 -20 -9z
m-486 -374 c-9 -9 -143 -26 -153 -20 -5 3 -5 8 1 12 12 7 159 15 152 8z
m-2238 -116 c27 -42 27 -43 3 -16 -43 50 -72 93 -51 76 10 -8 31 -35 48 -60z
m44 51 c-10 -2 -22 0 -28 6 -6 6 0 7 19 4 21 -5 23 -7 9 -10z m2295 -51 c-18
-11 -41 -3 -41 14 0 20 23 25 40 8 13 -12 13 -15 1 -22z m-3311 -10 c-14 -5
-53 -11 -85 -14 l-60 -5 60 13 c33 7 71 13 85 13 l25 0 -25 -7z m3520 -77 c0
-2 -7 -4 -15 -4 -8 0 -15 4 -15 10 0 5 7 7 15 4 8 -4 15 -8 15 -10z m-3970 -3
c0 -8 -72 -20 -127 -21 -13 0 -23 -4 -23 -9 0 -4 -19 -14 -42 -21 -24 -6 -61
-23 -84 -36 -43 -25 -74 -31 -74 -14 0 5 -10 9 -22 7 -29 -3 -55 -43 -63 -100
-7 -44 -7 -45 -26 -26 -10 10 -37 22 -59 25 -22 4 -40 10 -40 15 0 9 17 13 35
9 63 -15 75 -17 75 -9 0 5 -7 9 -15 9 -8 0 -15 5 -15 10 0 6 -12 10 -26 10
l-26 0 30 38 c16 20 27 44 25 52 -4 13 -3 13 6 0 6 -8 8 -22 6 -31 -3 -9 4
-24 15 -34 20 -18 20 -18 20 7 0 14 -7 31 -15 38 -8 7 -15 16 -15 20 0 14 61
28 170 40 58 6 139 15 180 19 107 12 110 12 110 2z m1600 -123 c26 -24 100
-81 166 -128 65 -47 136 -101 159 -120 22 -19 89 -66 148 -105 59 -38 142 -95
185 -124 234 -166 348 -239 477 -307 97 -51 66 -54 -37 -4 -97 49 -191 108
-321 202 -267 194 -331 238 -343 238 -7 0 -14 4 -16 8 -1 4 -34 30 -73 57
-165 116 -422 324 -401 325 5 0 30 -19 56 -42z m274 -4 c-7 -3 -10 -15 -7 -27
4 -21 4 -22 -11 -3 -13 16 -13 22 -3 28 6 4 17 7 22 7 6 0 5 -3 -1 -5z m536
-58 c0 -3 -4 -8 -10 -11 -5 -3 -10 -1 -10 4 0 6 5 11 10 11 6 0 10 -2 10 -4z
m-2790 -34 c0 -4 -9 -8 -20 -8 -11 0 -20 4 -20 8 0 4 9 8 20 8 11 0 20 -4 20
-8z m-134 -27 c31 -14 59 -23 64 -20 4 2 6 -10 4 -28 -1 -17 -3 -40 -3 -50 -1
-17 -9 -14 -68 18 -38 20 -76 44 -85 53 -19 16 -25 37 -8 27 6 -3 13 1 16 9 8
21 16 20 80 -9z m124 -70 c7 -8 17 -12 23 -8 5 3 7 2 4 -4 -6 -9 43 -53 60
-53 4 0 16 -12 27 -26 15 -21 16 -30 7 -50 -6 -13 -15 -24 -20 -24 -6 0 -37
22 -69 49 -49 41 -60 56 -64 86 -5 48 7 60 32 30z m2425 -85 c3 -6 -1 -7 -9
-4 -18 7 -21 14 -7 14 6 0 13 -4 16 -10z m-2389 -60 c41 -20 74 -30 107 -30
27 0 47 -5 47 -11 0 -6 -7 -8 -15 -5 -9 3 -40 -1 -71 -9 -30 -8 -61 -12 -69
-8 -32 12 -13 -14 23 -31 20 -10 48 -25 62 -34 14 -9 27 -17 30 -18 12 -2 47
-17 75 -30 l30 -14 -33 6 c-18 3 -59 16 -90 29 -31 13 -74 26 -95 30 -26 5
-39 13 -42 29 -7 29 -23 126 -20 126 1 0 29 -13 61 -30z m-306 -66 c0 -2 -9
-4 -20 -4 -11 0 -20 4 -20 9 0 5 9 7 20 4 11 -3 20 -7 20 -9z m123 -21 c-7 -2
-19 -2 -25 0 -7 3 -2 5 12 5 14 0 19 -2 13 -5z m44 -9 c-3 -3 -12 -4 -19 -1
-8 3 -5 6 6 6 11 1 17 -2 13 -5z m83 -26 c0 -13 -3 -18 -8 -12 -4 6 -16 16
-27 22 -19 11 -18 11 8 12 21 0 27 -5 27 -22z m-129 -49 c191 -38 204 -54 42
-54 -83 0 -118 4 -144 17 -19 9 -42 19 -51 22 -9 3 -22 14 -28 25 -14 28 -12
28 181 -10z m268 -45 c2 -2 -19 -4 -47 -4 -29 0 -52 4 -52 10 0 9 88 3 99 -6z
m-429 -25 c0 -4 -7 -6 -15 -3 -8 4 -15 10 -15 15 0 4 7 6 15 3 8 -4 15 -10 15
-15z m673 14 c-7 -2 -21 -2 -30 0 -10 3 -4 5 12 5 17 0 24 -2 18 -5z m-113
-28 c-6 -16 -6 -25 0 -25 6 0 10 4 10 9 0 5 7 11 14 14 11 4 13 1 9 -11 -6
-15 -5 -15 10 -3 15 12 17 12 11 -3 -6 -16 -15 -20 -45 -17 -13 1 -15 -10 -13
-74 l3 -75 -72 56 c-40 31 -82 69 -95 85 l-23 29 38 0 c21 1 61 9 88 19 71 26
76 26 65 -4z m200 5 c0 -5 -5 -10 -11 -10 -5 0 -7 5 -4 10 3 6 8 10 11 10 2 0
4 -4 4 -10z m-648 -11 c16 -11 -35 -10 -77 1 -26 7 -24 8 17 7 26 0 53 -4 60
-8z m1048 -64 c-1 -5 -7 -1 -16 10 -8 11 -17 19 -19 18 -3 -2 -5 -1 -5 2 0 3
0 13 0 23 0 12 6 8 20 -13 11 -16 20 -34 20 -40z m80 -97 c9 -16 6 -18 -20
-18 -17 0 -40 4 -50 10 -16 8 -17 15 -8 50 l11 41 28 -33 c16 -18 34 -41 39
-50z m3430 15 c-11 -17 -11 -17 -6 0 3 10 7 26 7 35 1 15 2 15 6 0 2 -10 -1
-25 -7 -35z m-1514 -5 l29 -33 -32 29 c-31 28 -38 36 -30 36 2 0 16 -15 33
-32z m-1751 -98 c14 -15 15 -20 4 -20 -9 0 -5 -8 10 -19 23 -17 23 -21 11 -51
l-13 -31 -76 3 c-86 4 -401 90 -401 109 0 5 69 9 153 10 83 0 175 4 202 9 80
12 91 11 110 -10z m-568 -136 c117 -80 172 -124 155 -124 -15 0 -210 101 -259
135 -30 20 -31 22 -16 38 10 9 18 17 20 17 1 0 46 -30 100 -66z m-163 -33 c34
-22 81 -48 106 -59 25 -11 61 -27 80 -36 l35 -15 -54 6 c-36 4 -52 3 -48 -4
11 -17 -52 -22 -164 -13 -57 5 -105 9 -106 10 -2 0 -3 6 -3 14 0 9 8 13 23 9
19 -4 20 -3 5 7 -10 6 -18 16 -18 22 0 15 63 97 74 98 5 0 37 -18 70 -39z
m351 -134 c-20 -11 -29 -3 -21 19 5 13 9 14 22 3 14 -11 14 -13 -1 -22z m82
27 c-3 -3 -12 -4 -19 -1 -8 3 -5 6 6 6 11 1 17 -2 13 -5z m517 -26 c-26 -21
-65 -23 -82 -6 -22 22 -12 28 46 26 58 -3 58 -3 36 -20z m-1077 6 c-3 -3 -12
-4 -19 -1 -8 3 -5 6 6 6 11 1 17 -2 13 -5z m1045 -70 c31 -20 38 -28 27 -35
-23 -14 -76 -10 -93 7 -18 18 -18 17 -10 38 9 23 28 20 76 -10z m48 6 c22 -11
40 -25 40 -31 0 -10 -18 -2 -75 38 -29 20 -10 16 35 -7z m2482 -26 c-29 -14
-69 -46 -89 -70 -33 -39 -53 -48 -53 -24 0 17 63 81 99 100 20 11 49 19 65 20
27 0 25 -3 -22 -26z m-3040 -58 c24 -13 48 -25 53 -26 30 -7 33 -12 24 -43
l-8 -32 18 23 c24 28 51 29 51 2 0 -12 -10 -40 -21 -63 -20 -37 -23 -40 -30
-22 l-9 20 1 -20 c1 -11 0 -22 -1 -25 -6 -17 -7 -41 -1 -34 35 42 71 94 71
105 1 34 16 40 44 18 l27 -21 -22 -24 c-12 -13 -28 -24 -35 -24 -16 0 -11 -50
6 -60 11 -7 10 -13 -3 -34 -12 -18 -13 -24 -4 -20 8 3 20 -3 28 -12 12 -16 12
-17 -4 -11 -14 5 -16 3 -8 -12 6 -10 8 -21 5 -24 -3 -3 6 -13 20 -22 14 -10
26 -25 25 -34 0 -13 -2 -13 -6 -2 -3 8 -18 25 -32 37 -15 12 -33 34 -40 48
l-14 25 -36 -28 c-46 -35 -121 -73 -121 -61 0 5 -12 -2 -26 -15 -15 -14 -31
-25 -36 -25 -5 0 -24 -11 -42 -25 -18 -14 -37 -25 -41 -25 -4 0 22 23 59 51
61 46 79 56 110 58 4 1 6 7 3 15 -3 7 10 28 29 47 19 18 34 38 34 43 0 6 -24
-12 -52 -40 -29 -28 -61 -56 -70 -63 -16 -12 -17 -11 -12 19 5 22 3 35 -6 40
-11 7 -11 33 -1 152 13 134 18 168 27 168 2 0 23 -11 46 -24z m498 14 c8 -5
11 -10 5 -10 -5 0 -17 5 -25 10 -8 5 -10 10 -5 10 6 0 17 -5 25 -10z m1867
-52 c-3 -8 -6 -5 -6 6 -1 11 2 17 5 13 3 -3 4 -12 1 -19z m668 2 c8 -13 -13
-40 -31 -40 -17 0 -18 22 -2 38 15 15 25 15 33 2z m-2232 -7 c-13 -2 -35 -2
-50 0 -16 2 -5 4 22 4 28 0 40 -2 28 -4z m96 -93 c45 -17 139 -41 208 -55 70
-14 129 -28 132 -30 8 -8 -62 -5 -99 5 -19 5 -80 20 -136 33 -122 29 -202 55
-209 68 -10 16 19 10 104 -21z m2066 0 c-3 -5 -10 -10 -16 -10 -5 0 -9 5 -9
10 0 6 7 10 16 10 8 0 12 -4 9 -10z m-2680 -61 c14 -18 24 -38 20 -47 -3 -9 0
-12 9 -9 14 5 36 -10 36 -25 0 -10 -27 -10 -32 0 -1 4 -20 18 -40 31 -32 19
-37 20 -31 6 5 -14 2 -16 -17 -10 -17 5 -21 4 -15 -6 6 -11 5 -11 -4 -3 -10 9
-9 18 6 40 10 16 12 25 6 21 -20 -12 -15 4 5 19 24 19 27 18 57 -17z m96 -106
c13 -16 12 -17 -3 -4 -10 7 -18 15 -18 17 0 8 8 3 21 -13z m-7 -39 c3 -8 2
-12 -4 -9 -6 3 -10 10 -10 16 0 14 7 11 14 -7z m1086 2 c0 -8 -4 -18 -10 -21
-5 -3 -10 -4 -10 -1 0 2 -3 11 -6 20 -4 11 -1 16 10 16 9 0 16 -6 16 -14z
m-2115 -134 c26 -23 46 -44 44 -47 -3 -2 -18 7 -34 22 -17 14 -40 32 -53 41
-13 8 -28 24 -33 35 -10 18 -10 18 8 6 11 -8 41 -33 68 -57z m3535 -7 c0 -8
-6 -15 -14 -15 -9 0 -12 -7 -9 -18 2 -10 -3 -25 -13 -33 -16 -13 -17 -11 -12
18 3 22 0 34 -9 38 -23 8 -4 25 28 25 19 0 29 -5 29 -15z m-3503 -85 c45 -30
81 -56 79 -57 -2 -2 -29 -10 -61 -18 -42 -11 -61 -12 -71 -5 -24 21 -58 148
-36 138 4 -1 44 -28 89 -58z m3593 15 c21 -25 1 -31 -22 -7 -18 18 -19 22 -6
22 8 0 21 -7 28 -15z m-2555 -55 c27 -30 12 -34 -15 -5 -13 14 -19 25 -13 25
5 0 18 -9 28 -20z m1365 -16 c6 -14 14 -23 19 -20 5 3 12 -6 15 -22 23 -93 27
-100 64 -122 l37 -23 -68 -20 -67 -20 -25 23 c-14 13 -25 18 -25 12 0 -7 -14
-12 -31 -12 -17 0 -28 4 -24 10 3 5 12 7 20 3 22 -8 18 10 -4 24 -14 9 -28 9
-55 1 -20 -6 -36 -14 -36 -18 0 -3 13 -14 30 -23 16 -10 34 -27 40 -37 9 -16
6 -22 -17 -34 l-28 -14 38 -7 c25 -5 43 -3 50 4 8 8 6 11 -8 11 -19 1 -19 1
-1 11 18 11 35 -1 36 -23 0 -12 -79 -30 -101 -23 -37 12 -103 143 -111 220 -2
17 -7 33 -13 38 -6 4 -3 13 9 22 27 21 46 19 46 -4 0 -26 13 -33 62 -35 43 -3
55 6 34 24 -17 14 -17 50 0 50 7 0 20 3 29 6 10 4 15 2 13 -7 -2 -7 3 -13 10
-14 7 0 17 -7 22 -15 7 -11 10 -8 10 16 0 27 6 44 17 44 2 0 8 -12 13 -26z
m-1029 7 c-8 -5 -20 -7 -28 -4 -21 8 -15 13 15 13 20 0 23 -3 13 -9z m-131
-12 c0 -5 11 -4 25 1 23 9 25 8 16 -9 -6 -10 -12 -36 -14 -57 -5 -48 -18 -52
-81 -20 -27 13 -55 22 -62 19 -8 -3 -14 0 -14 5 0 6 -9 13 -19 17 -11 3 -22
13 -25 22 -5 12 -1 14 19 11 14 -3 25 -2 25 3 0 4 24 9 53 11 28 2 58 3 65 4
6 0 12 -3 12 -7z m-1098 -30 c18 -10 104 -73 118 -86 5 -5 -130 3 -217 13 -40
5 -54 11 -59 26 -7 24 -9 23 51 41 63 19 81 20 107 6z m1214 -29 c8 0 14 -4
14 -10 0 -15 -24 -12 -46 6 -17 14 -17 15 -1 10 10 -3 25 -6 33 -6z m-1206
-66 c69 -2 139 -7 155 -10 61 -13 239 -116 275 -159 14 -16 13 -17 -10 -10
-14 4 -38 18 -55 31 -59 47 -100 76 -76 54 14 -12 53 -48 87 -80 59 -55 62
-60 51 -84 -7 -14 -47 -48 -89 -76 l-78 -51 -77 52 c-134 91 -402 374 -327
345 11 -4 75 -9 144 -12z m270 -9 c52 -10 204 -56 213 -65 5 -4 -4 -6 -20 -4
-15 2 -22 1 -15 -2 17 -8 15 -24 -3 -24 -8 0 -15 -4 -15 -9 0 -4 -52 17 -115
48 -63 31 -115 60 -115 64 0 5 8 6 18 3 9 -2 33 -7 52 -11z m2755 -45 c3 -5 2
-10 -4 -10 -5 0 -13 5 -16 10 -3 6 -2 10 4 10 5 0 13 -4 16 -10z m-2252 -62
c15 -6 27 -14 27 -19 0 -12 -1 -12 -61 16 -38 18 -45 24 -24 20 17 -3 42 -11
58 -17z m309 -80 c30 -56 178 -230 178 -209 0 5 17 -7 37 -25 24 -22 48 -34
67 -35 24 -1 26 -3 8 -6 -12 -2 -20 -8 -17 -13 3 -5 12 -7 21 -3 8 3 25 -4 38
-16 19 -18 27 -20 50 -11 15 5 43 10 62 10 24 0 42 8 58 25 13 14 27 25 32 25
5 0 30 -17 56 -37 25 -21 62 -51 82 -66 41 -32 47 -57 14 -56 -22 0 -22 1 -3
9 22 9 21 10 -13 14 -12 2 -28 9 -35 16 -10 10 -9 11 2 5 10 -5 12 -4 7 4 -4
6 -11 9 -16 6 -5 -3 -11 -1 -15 5 -4 6 -11 8 -16 5 -5 -3 -6 2 -2 11 4 12 3
15 -5 10 -19 -12 -14 -36 8 -36 11 0 20 -5 20 -11 0 -11 -32 -9 -107 7 -34 6
-42 -3 -21 -24 15 -15 19 -16 -92 8 -52 11 -111 29 -130 39 -19 10 -48 21 -64
25 l-28 7 21 -27 c26 -33 54 -54 80 -59 11 -2 28 -8 38 -13 10 -5 43 -15 73
-21 30 -7 100 -28 155 -47 144 -49 388 -84 583 -84 150 0 205 -12 115 -26 -52
-8 -272 2 -375 16 -36 5 -88 17 -115 26 -36 12 -67 15 -125 11 -48 -4 -78 -3
-78 3 0 16 -39 12 -71 -7 -16 -10 -29 -24 -29 -33 0 -8 18 -39 40 -68 22 -29
38 -57 35 -62 -3 -5 21 -27 53 -48 75 -52 100 -82 32 -40 -29 18 -79 57 -111
87 -32 30 -59 49 -59 44 0 -6 20 -29 45 -52 25 -23 45 -48 45 -56 0 -18 -1
-18 -33 -2 -37 19 -116 20 -241 2 -136 -19 -222 -20 -233 -2 -11 17 -133 55
-133 41 0 -2 37 -21 83 -44 79 -38 135 -76 125 -85 -7 -7 -101 21 -148 45 -25
12 -88 48 -140 80 -53 31 -107 62 -120 69 l-25 12 25 -22 25 -22 -25 8 c-14 4
-51 18 -82 30 -41 17 -69 22 -98 18 -60 -8 -59 -23 2 -23 29 0 60 -5 68 -10
12 -7 11 -9 -5 -10 -46 -1 -75 -7 -90 -20 -14 -12 -104 -60 -111 -60 -2 0 0 8
3 18 6 15 5 15 -10 3 -9 -7 -14 -17 -12 -22 3 -5 -3 -14 -15 -21 -11 -7 -20
-20 -21 -28 0 -10 -2 -11 -6 -2 -7 19 -20 14 -26 -9 -4 -13 -10 -18 -18 -13
-8 4 -10 3 -5 -4 5 -9 13 -9 27 -1 23 12 41 3 20 -10 -8 -5 -10 -14 -6 -22 5
-7 -18 3 -51 21 -111 63 -193 121 -221 158 -15 20 -38 51 -50 67 -27 35 -73
120 -73 134 0 5 10 11 21 14 15 4 20 11 15 22 -3 10 -2 14 5 10 6 -4 20 1 31
12 12 10 18 12 14 6 -11 -19 5 -16 28 5 27 25 155 75 172 68 28 -11 13 13 -28
46 -73 57 -263 261 -289 309 -18 35 -1 19 53 -47 112 -139 355 -333 463 -370
58 -19 77 -8 33 18 -18 11 -49 35 -68 53 -19 19 -48 45 -65 60 l-30 27 29 -17
c16 -9 25 -12 22 -6 -12 18 22 44 48 37 15 -4 30 1 42 13 11 10 25 15 34 11 8
-4 33 -15 55 -24 80 -35 90 -42 93 -65 6 -37 -17 -81 -42 -81 -12 0 -27 5 -34
12 -14 14 -27 4 -19 -15 3 -8 23 -18 44 -22 21 -4 44 -12 52 -18 28 -24 218
-17 371 12 204 40 200 39 200 56 0 8 8 11 23 8 12 -2 -7 12 -43 31 -35 20 -67
36 -70 36 -12 0 -145 68 -165 84 -11 9 9 1 45 -18 70 -36 168 -71 177 -63 4 5
-27 72 -130 274 -21 39 -37 74 -37 77 0 16 12 0 42 -56z m526 -221 c39 -26 72
-49 72 -52 0 -15 -193 115 -260 175 -19 17 -1 7 40 -23 41 -29 108 -74 148
-100z m-978 133 c8 -5 11 -10 5 -10 -5 0 -17 5 -25 10 -8 5 -10 10 -5 10 6 0
17 -5 25 -10z m45 -58 c-6 -6 -75 27 -75 37 0 5 18 0 39 -12 22 -12 38 -23 36
-25z m266 -33 c19 -16 20 -18 4 -10 -34 17 -51 31 -39 31 7 0 22 -9 35 -21z
m-356 -39 c-3 -5 1 -10 10 -10 9 0 13 5 9 11 -4 7 1 10 12 7 19 -3 33 -38 15
-38 -23 0 -62 21 -56 30 3 5 8 10 11 10 3 0 2 -4 -1 -10z m1233 -101 c9 -12
53 -39 96 -60 44 -22 73 -39 65 -39 -42 0 -177 57 -224 94 -19 15 -19 16 9 6
26 -9 27 -9 16 5 -10 12 -10 15 4 15 9 0 24 -10 34 -21z m-2728 -48 c0 -6 -4
-12 -8 -15 -5 -3 -9 1 -9 9 0 8 4 15 9 15 4 0 8 -4 8 -9z m1673 2 c7 -6 -59
-52 -75 -53 -14 0 -8 16 12 38 20 21 50 29 63 15z m-296 -39 c-3 -3 -12 -4
-19 -1 -8 3 -5 6 6 6 11 1 17 -2 13 -5z m-1296 -42 c-7 -2 -18 1 -23 6 -8 8
-4 9 13 5 13 -4 18 -8 10 -11z m2928 -4 c39 -14 16 -21 -44 -13 -47 5 -54 9
-44 21 11 14 35 12 88 -8z m-410 -357 c22 -16 23 -22 14 -43 l-12 -23 0 23
c-1 13 -11 32 -23 43 -30 24 -10 24 21 0z m-462 -77 c-3 -3 -12 -4 -19 -1 -8
3 -5 6 6 6 11 1 17 -2 13 -5z m-1142 -133 c-3 -6 -11 -11 -16 -11 -5 0 -4 6 3
14 14 16 24 13 13 -3z m950 -21 l-30 -8 33 -1 c17 0 32 4 32 9 0 6 5 10 11 10
5 0 8 -4 5 -9 -4 -5 -2 -20 3 -34 11 -27 -5 -65 -42 -105 -12 -13 -22 -35 -22
-49 -1 -23 0 -24 13 -6 13 17 14 17 10 -2 -2 -12 -12 -20 -25 -21 -13 -1 -20
3 -17 7 3 5 -4 9 -15 9 -12 0 -21 -4 -21 -10 0 -5 -19 -10 -43 -10 -24 0 -49
-6 -55 -12 -9 -9 -15 -9 -20 -3 -4 6 -20 17 -36 25 -59 30 -66 35 -72 52 -3
10 9 38 27 66 30 45 38 50 89 60 31 7 67 12 81 12 19 0 21 2 9 10 -8 5 -23 7
-32 4 -10 -3 -18 -1 -18 5 0 7 30 11 83 10 59 -1 74 -4 52 -9z m-950 -10 c3
-6 -1 -7 -9 -4 -18 7 -21 14 -7 14 6 0 13 -4 16 -10z m761 -5 c-8 -8 -18 -15
-22 -15 -3 0 -1 7 6 15 7 8 17 15 22 15 5 0 3 -7 -6 -15z m1039 -35 c13 -6 15
-9 5 -9 -8 0 -22 4 -30 9 -18 12 -2 12 25 0z m75 -25 c19 -7 28 -14 20 -14 -8
0 -28 6 -45 14 -39 17 -21 18 25 0z m-875 -55 c-3 -5 -11 -10 -16 -10 -6 0 -7
5 -4 10 3 6 11 10 16 10 6 0 7 -4 4 -10z m-1115 -64 c0 -2 -7 -9 -15 -16 -13
-11 -14 -10 -9 4 5 14 24 23 24 12z m-127 -121 c-3 -9 -8 -14 -10 -11 -3 3 -2
9 2 15 9 16 15 13 8 -4z m-146 -51 c-3 -3 -12 -4 -19 -1 -8 3 -5 6 6 6 11 1
17 -2 13 -5z m-16 -35 l24 -21 -30 7 c-48 11 -55 14 -55 25 0 17 36 11 61 -11z
m41 -73 c7 4 8 2 4 -4 -11 -18 -26 -14 -25 6 0 10 3 12 6 4 2 -6 10 -9 15 -6z
m13 -66 c3 -5 1 -10 -4 -10 -6 0 -11 5 -11 10 0 6 2 10 4 10 3 0 8 -4 11 -10z
m55 -11 c0 -5 -5 -7 -10 -4 -6 4 -19 1 -28 -7 -15 -12 -16 -11 -3 5 15 19 41
23 41 6z m17 -3 c-7 -18 18 -42 28 -26 9 14 25 3 19 -14 -3 -7 3 -19 13 -26
15 -12 16 -12 6 0 -17 19 -16 31 1 24 8 -3 16 2 19 13 3 13 5 11 6 -7 0 -15 6
-31 12 -37 13 -13 -17 -46 -34 -36 -9 5 -9 3 0 -8 10 -13 4 -22 -37 -54 -27
-21 -47 -42 -44 -47 3 -4 -6 -8 -20 -8 -13 0 -31 -3 -40 -6 -9 -3 -16 -1 -16
5 0 6 7 11 16 11 8 0 12 5 9 10 -3 6 -2 10 3 10 6 0 8 9 5 19 -6 22 -36 38
-41 22 -2 -6 -8 -11 -13 -11 -6 0 -7 5 -4 10 3 6 1 10 -4 10 -6 0 -11 6 -11
14 0 9 -9 12 -28 10 -22 -2 -28 1 -29 16 -1 12 5 20 13 20 18 0 46 25 37 34
-3 3 0 12 7 21 8 10 9 15 1 15 -6 0 -11 5 -11 11 0 8 4 8 13 2 6 -6 20 -9 29
-8 10 2 20 0 23 -5 7 -12 56 1 62 16 3 8 7 14 10 14 3 0 3 -6 0 -14z m-167
-17 c0 -5 -7 -9 -15 -9 -17 0 -37 -42 -24 -50 14 -9 -2 -50 -20 -50 -13 0 -13
2 -3 9 18 11 11 47 -9 44 -9 -2 -15 5 -15 17 0 13 4 16 10 10 14 -14 26 -12
26 4 0 19 29 48 41 41 5 -4 9 -10 9 -16z m20 -36 c0 -3 -7 -3 -15 1 -8 3 -15
1 -15 -3 0 -5 6 -12 13 -14 7 -3 5 -6 -5 -6 -17 -1 -25 19 -12 32 6 6 34 -2
34 -10z m1445 -87 c19 -14 19 -15 -8 -27 -34 -16 -57 0 -36 25 17 19 21 19 44
2z m-1595 -61 c0 -8 -2 -15 -4 -15 -2 0 -6 7 -10 15 -3 8 -1 15 4 15 6 0 10
-7 10 -15z m-120 -89 c0 -2 -8 -10 -17 -17 -16 -13 -17 -12 -4 4 13 16 21 21
21 13z m1107 -127 c7 -6 13 -16 13 -22 0 -5 -9 -2 -19 7 -10 9 -32 21 -47 27
-28 9 -28 9 5 4 19 -3 40 -10 48 -16z m-1073 -24 c-4 -8 -11 -15 -16 -15 -6 0
-5 6 2 15 7 8 14 15 16 15 2 0 1 -7 -2 -15z m956 -9 c0 -2 -8 -10 -17 -17 -16
-13 -17 -12 -4 4 13 16 21 21 21 13z m-960 -38 c0 -3 3 -13 6 -22 4 -12 0 -16
-15 -16 -12 0 -21 -5 -21 -10 0 -6 -6 -5 -14 2 -8 7 -12 17 -9 21 3 5 -4 4
-16 -2 -11 -7 -21 -8 -21 -4 0 4 -5 1 -10 -7 -5 -8 -10 -10 -10 -3 0 6 17 24
37 41 30 24 40 28 55 18 10 -6 18 -14 18 -18z m-133 -56 c-10 -10 -14 -22 -10
-25 3 -4 -2 -7 -12 -7 -17 0 -16 3 5 25 27 29 42 35 17 7z m72 -18 c-14 -13
-16 -13 -16 0 0 8 4 13 9 10 4 -3 8 0 8 7 0 7 3 9 7 5 4 -3 0 -13 -8 -22z"/>
<path d="M7288 4213 c7 -3 16 -2 19 1 4 3 -2 6 -13 5 -11 0 -14 -3 -6 -6z"/>
<path d="M7336 4201 c-4 -5 3 -7 14 -4 23 6 26 13 6 13 -8 0 -17 -4 -20 -9z"/>
<path d="M7388 4193 c7 -3 16 -2 19 1 4 3 -2 6 -13 5 -11 0 -14 -3 -6 -6z"/>
<path d="M7858 3603 c6 -2 18 -2 25 0 6 3 1 5 -13 5 -14 0 -19 -2 -12 -5z"/>
<path d="M7938 3593 c7 -3 16 -2 19 1 4 3 -2 6 -13 5 -11 0 -14 -3 -6 -6z"/>
<path d="M7993 3593 c9 -2 23 -2 30 0 6 3 -1 5 -18 5 -16 0 -22 -2 -12 -5z"/>
<path d="M9465 2160 c-3 -5 -18 -10 -33 -11 -23 0 -24 -1 -7 -8 26 -10 55 -2
55 15 0 16 -6 18 -15 4z"/>
<path d="M8200 2100 c0 -5 5 -10 11 -10 5 0 7 5 4 10 -3 6 -8 10 -11 10 -2 0
-4 -4 -4 -10z"/>
<path d="M7983 2028 c-13 -6 -23 -15 -23 -21 0 -5 10 -3 23 6 13 8 32 17 42
20 19 5 19 5 0 5 -11 0 -30 -4 -42 -10z"/>
<path d="M9370 1876 c0 -2 8 -10 18 -17 15 -13 16 -12 3 4 -13 16 -21 21 -21
13z"/>
<path d="M8868 1433 c7 -3 16 -2 19 1 4 3 -2 6 -13 5 -11 0 -14 -3 -6 -6z"/>
<path d="M7624 794 c3 -9 6 -20 6 -25 0 -5 11 -9 25 -9 14 0 25 5 25 10 0 6 9
10 20 10 11 0 20 6 20 13 0 14 -57 16 -79 3 -10 -6 -12 -5 -7 2 4 7 2 12 -4
12 -7 0 -9 -7 -6 -16z"/>
<path d="M7528 783 c7 -3 16 -2 19 1 4 3 -2 6 -13 5 -11 0 -14 -3 -6 -6z"/>
<path d="M7270 395 c0 -8 2 -15 4 -15 2 0 6 7 10 15 3 8 1 15 -4 15 -6 0 -10
-7 -10 -15z"/>
<path d="M4065 5282 c4 -7 2 -19 -5 -27 -6 -8 -7 -16 -2 -19 6 -3 15 0 21 7 8
10 7 19 -5 33 -8 10 -13 13 -9 6z"/>
<path d="M3692 5249 c-17 -27 -13 -30 23 -14 18 8 23 14 13 14 -9 1 -18 6 -20
11 -2 6 -9 1 -16 -11z"/>
<path d="M3999 5233 c-10 -12 -10 -14 -1 -9 22 13 13 -1 -23 -37 -39 -39 -47
-64 -15 -47 11 6 24 19 30 30 5 10 19 21 29 25 13 4 17 12 14 26 -8 27 -19 31
-34 12z"/>
<path d="M7967 5160 c50 -64 119 -128 128 -119 2 3 -37 45 -87 95 l-91 89 50
-65z"/>
<path d="M11308 5173 c7 -3 16 -2 19 1 4 3 -2 6 -13 5 -11 0 -14 -3 -6 -6z"/>
<path d="M11250 5160 c-23 -7 -23 -8 -3 -9 12 -1 25 4 28 9 3 6 5 10 3 9 -2
-1 -14 -5 -28 -9z"/>
<path d="M11165 5140 l-20 -9 20 0 c11 0 29 4 40 9 l20 9 -20 0 c-11 0 -29 -4
-40 -9z"/>
<path d="M6670 5129 c-25 -4 -79 -14 -120 -21 -105 -17 -56 -21 65 -5 55 8
105 11 110 7 6 -4 21 -3 35 2 20 7 22 11 10 18 -17 11 -38 11 -100 -1z"/>
<path d="M5506 5081 c68 -61 291 -187 291 -164 0 7 -40 33 -88 58 -49 24 -113
60 -144 80 -52 33 -81 46 -59 26z"/>
<path d="M6727 5068 c-7 -27 29 -64 62 -64 21 0 21 1 5 13 -10 7 -22 13 -27
13 -19 0 -35 26 -25 43 5 11 5 17 0 17 -5 0 -12 -10 -15 -22z"/>
<path d="M6185 5020 c-10 -11 -14 -20 -8 -20 5 0 18 9 28 20 10 11 14 20 8 20
-5 0 -18 -9 -28 -20z"/>
<path d="M7687 4973 c-62 -61 -67 -68 -51 -80 26 -19 44 -16 44 8 0 11 18 47
40 80 23 32 39 59 38 59 -2 0 -34 -30 -71 -67z"/>
<path d="M3903 5023 c9 -2 25 -2 35 0 9 3 1 5 -18 5 -19 0 -27 -2 -17 -5z"/>
<path d="M4024 5021 c5 -8 76 -5 85 4 2 3 -17 5 -43 5 -26 0 -45 -4 -42 -9z"/>
<path d="M6331 4984 c0 -11 3 -14 6 -6 3 7 2 16 -1 19 -3 4 -6 -2 -5 -13z"/>
<path d="M7905 4981 c22 -11 47 -20 55 -20 17 0 -34 23 -71 33 -13 3 -6 -3 16
-13z"/>
<path d="M4117 4972 c9 -6 -1 -19 -32 -45 -25 -21 -45 -42 -45 -46 0 -5 22
-13 50 -18 52 -11 60 -7 74 31 4 12 13 17 25 13 23 -6 32 18 20 51 -7 19 -16
22 -56 22 -27 0 -43 -4 -36 -8z"/>
<path d="M8000 4960 c0 -5 5 -10 10 -10 6 0 10 5 10 10 0 6 -4 10 -10 10 -5 0
-10 -4 -10 -10z"/>
<path d="M6498 4903 c7 -3 16 -2 19 1 4 3 -2 6 -13 5 -11 0 -14 -3 -6 -6z"/>
<path d="M6555 4899 l-30 -7 35 -1 c59 -2 81 -11 75 -31 -3 -11 1 -20 10 -24
8 -3 15 -1 15 5 0 21 -21 49 -38 50 -11 1 -8 4 8 9 22 7 21 8 -10 7 -20 -1
-49 -5 -65 -8z"/>
<path d="M5945 4820 c3 -5 18 -10 32 -10 32 0 28 5 -10 14 -19 4 -26 3 -22 -4z"/>
<path d="M7255 4793 c-36 -3 -45 -7 -35 -14 10 -7 -4 -8 -45 -5 -37 3 -47 2
-25 -2 33 -7 34 -8 15 -20 -18 -11 -16 -12 15 -7 41 7 137 33 165 45 22 10 6
10 -90 3z"/>
<path d="M6200 4766 c36 -13 50 -12 50 5 0 5 -19 9 -42 8 l-43 0 35 -13z"/>
<path d="M6978 4763 c7 -3 16 -2 19 1 4 3 -2 6 -13 5 -11 0 -14 -3 -6 -6z"/>
<path d="M6507 4753 c-14 -13 -6 -23 18 -23 14 0 25 -6 25 -13 0 -8 10 -22 22
-33 l22 -19 -15 25 c-9 14 -22 35 -30 48 -14 22 -30 28 -42 15z"/>
<path d="M6418 4723 c7 -3 16 -2 19 1 4 3 -2 6 -13 5 -11 0 -14 -3 -6 -6z"/>
<path d="M7018 4683 c6 -2 18 -2 25 0 6 3 1 5 -13 5 -14 0 -19 -2 -12 -5z"/>
<path d="M6368 4673 c7 -3 16 -2 19 1 4 3 -2 6 -13 5 -11 0 -14 -3 -6 -6z"/>
<path d="M6928 4673 c12 -2 32 -2 45 0 12 2 2 4 -23 4 -25 0 -35 -2 -22 -4z"/>
<path d="M6320 4660 c0 -5 5 -10 11 -10 5 0 7 5 4 10 -3 6 -8 10 -11 10 -2 0
-4 -4 -4 -10z"/>
<path d="M6609 4653 c-13 -15 -12 -15 9 -4 23 12 28 21 13 21 -5 0 -15 -7 -22
-17z"/>
<path d="M6720 4659 c-11 -8 -12 -12 -2 -16 6 -2 9 -10 5 -16 -3 -7 -2 -9 2
-4 5 4 25 -7 44 -25 34 -32 34 -31 -4 12 l-40 45 80 6 80 5 -75 2 c-41 1 -82
-3 -90 -9z"/>
<path d="M6475 4640 c33 -40 45 -52 45 -43 0 5 -15 22 -32 39 -26 23 -29 24
-13 4z"/>
<path d="M6530 4586 c0 -2 8 -10 18 -17 15 -13 16 -12 3 4 -13 16 -21 21 -21
13z"/>
<path d="M6580 4556 c0 -9 5 -16 10 -16 6 0 10 4 10 9 0 6 -4 13 -10 16 -5 3
-10 -1 -10 -9z"/>
<path d="M5345 4453 c-49 -41 -120 -98 -157 -126 -38 -28 -66 -52 -64 -55 3
-2 20 8 39 22 19 15 41 25 48 23 8 -2 11 -2 6 1 -7 4 107 98 163 134 20 13 70
79 58 78 -2 -1 -43 -35 -93 -77z"/>
<path d="M6630 4491 c14 -11 30 -21 35 -21 11 0 -7 14 -40 31 -13 7 -12 3 5
-10z"/>
<path d="M7321 4494 c0 -11 3 -14 6 -6 3 7 2 16 -1 19 -3 4 -6 -2 -5 -13z"/>
<path d="M3155 4470 c-3 -5 -2 -10 4 -10 5 0 13 5 16 10 3 6 2 10 -4 10 -5 0
-13 -4 -16 -10z"/>
<path d="M3548 4452 c-11 -5 -14 -12 -9 -20 6 -10 16 -11 42 -4 19 6 28 11 21
11 -7 1 -10 6 -7 11 7 11 -21 12 -47 2z"/>
<path d="M6946 4441 c22 -10 56 -21 75 -25 26 -4 22 -2 -16 13 -74 27 -106 34
-59 12z"/>
<path d="M5340 4407 c-14 -12 -39 -32 -55 -45 -38 -29 -11 -17 32 14 36 27 49
30 56 12 4 -9 6 -8 6 2 1 32 -13 39 -39 17z"/>
<path d="M6930 4412 c0 -16 66 -72 85 -73 19 0 19 -1 2 -8 -17 -6 -17 -8 1
-24 11 -10 23 -17 28 -15 11 3 103 -32 129 -49 30 -20 43 -16 54 20 13 39 5
71 -16 63 -8 -3 -12 -2 -9 3 3 5 -1 12 -10 15 -24 9 -31 7 -14 -4 12 -8 10
-10 -8 -10 -13 0 -21 4 -17 9 3 6 -3 8 -14 6 -24 -4 -135 30 -178 55 -18 11
-33 16 -33 12z"/>
<path d="M7148 4383 c6 -2 18 -2 25 0 6 3 1 5 -13 5 -14 0 -19 -2 -12 -5z"/>
<path d="M3510 4353 c0 -27 0 -27 15 -6 8 12 28 24 43 26 19 3 14 4 -15 6 -40
1 -43 -1 -43 -26z"/>
<path d="M7228 4365 c13 -9 26 -14 29 -11 8 8 3 12 -27 21 l-25 7 23 -17z"/>
<path d="M2990 4216 c0 -8 5 -18 10 -21 6 -3 10 1 10 9 0 8 -4 18 -10 21 -5 3
-10 -1 -10 -9z"/>
<path d="M4367 4123 c-8 -7 11 -33 23 -33 5 0 6 9 3 20 -5 20 -15 25 -26 13z"/>
<path d="M4420 4117 c0 -9 -3 -22 -6 -31 -3 -9 -1 -16 6 -16 6 0 8 5 4 11 -4
8 1 9 16 4 18 -6 21 -4 18 16 -3 26 -38 40 -38 16z"/>
<path d="M4325 4110 c3 -5 11 -10 16 -10 6 0 7 5 4 10 -3 6 -11 10 -16 10 -6
0 -7 -4 -4 -10z"/>
<path d="M4315 3920 l-30 -8 35 0 c19 0 49 4 65 8 l30 8 -35 0 c-19 0 -48 -4
-65 -8z"/>
<path d="M4110 3871 c-19 -28 -50 -93 -50 -106 0 -9 34 -1 43 10 5 6 6 2 3 -9
-4 -10 -1 -26 6 -34 9 -11 9 -14 1 -9 -6 4 -14 3 -17 -2 -4 -5 -1 -13 4 -16
11 -7 65 25 133 77 l37 30 -30 35 c-17 19 -28 38 -25 44 4 5 1 9 -4 9 -6 0
-11 -4 -11 -10 0 -6 -9 -6 -26 0 -37 14 -40 13 -64 -19z"/>
<path d="M3130 3884 c0 -6 7 -19 15 -30 8 -10 14 -14 14 -9 0 6 -6 19 -14 29
-8 11 -15 15 -15 10z"/>
<path d="M4265 3875 c17 -8 46 -14 65 -14 31 1 32 1 10 8 -14 4 -43 11 -65 14
l-40 6 30 -14z"/>
<path d="M4481 3864 c0 -11 3 -14 6 -6 3 7 2 16 -1 19 -3 4 -6 -2 -5 -13z"/>
<path d="M4965 3795 c-76 -34 -141 -67 -142 -71 -2 -5 11 -10 29 -11 28 -2 70
11 122 39 13 7 16 6 11 -3 -9 -14 10 -5 38 19 14 12 15 18 5 25 -10 6 -8 7 4
4 10 -4 31 8 55 28 21 19 34 34 28 34 -5 0 -73 -29 -150 -64z"/>
<path d="M4492 3805 c0 -16 2 -22 5 -12 2 9 2 23 0 30 -3 6 -5 -1 -5 -18z"/>
<path d="M3340 3816 c0 -2 9 -6 20 -9 11 -3 18 -1 14 4 -5 9 -34 13 -34 5z"/>
<path d="M3071 3775 c0 -11 4 -27 9 -35 9 -13 10 -13 9 0 0 8 -4 24 -9 35 l-9
20 0 -20z"/>
<path d="M3167 3776 c-4 -10 -1 -13 8 -9 8 3 12 9 9 14 -7 12 -11 11 -17 -5z"/>
<path d="M3364 3772 c3 -5 17 -9 31 -9 32 0 27 6 -10 13 -14 2 -24 1 -21 -4z"/>
<path d="M7293 3742 c8 -11 52 -27 105 -36 51 -9 37 2 -25 20 -32 9 -64 19
-72 22 -9 3 -12 1 -8 -6z"/>
<path d="M5693 3722 c-13 -2 -23 -8 -23 -13 0 -9 37 -3 49 7 8 7 -4 10 -26 6z"/>
<path d="M3990 3716 c0 -2 7 -7 16 -10 8 -3 12 -2 9 4 -6 10 -25 14 -25 6z"/>
<path d="M7450 3690 c8 -5 22 -10 30 -10 13 0 13 1 0 10 -8 5 -22 10 -30 10
-13 0 -13 -1 0 -10z"/>
<path d="M4029 3655 c12 -22 36 -56 52 -75 l30 -35 -26 42 c-15 24 -24 47 -19
54 5 8 3 9 -6 4 -10 -6 -12 -4 -6 11 4 10 4 15 0 11 -4 -4 -16 1 -27 10 -19
17 -19 15 2 -22z"/>
<path d="M4082 3666 c6 -10 13 -14 17 -9 3 5 15 15 26 21 17 9 15 11 -16 9
-33 -2 -36 -4 -27 -21z"/>
<path d="M5860 3680 c-8 -5 -12 -11 -9 -14 3 -3 14 1 25 9 21 16 8 20 -16 5z"/>
<path d="M7250 3610 c0 -38 43 -146 82 -203 22 -32 42 -57 44 -55 11 11 -103
278 -118 278 -5 0 -8 -9 -8 -20z"/>
<path d="M5885 3610 c27 -12 43 -12 25 0 -8 5 -22 9 -30 9 -10 0 -8 -3 5 -9z"/>
<path d="M6045 3599 c-4 -6 -5 -12 -2 -15 2 -3 7 2 10 11 7 17 1 20 -8 4z"/>
<path d="M6132 3586 c3 -4 21 -10 39 -13 18 -2 44 -10 58 -16 l26 -11 -28 -4
c-16 -2 -36 0 -45 4 -20 9 -62 12 -57 4 2 -3 -9 -21 -24 -39 -22 -27 -33 -33
-52 -28 -50 14 -56 23 -34 59 l19 33 -31 -25 c-17 -14 -30 -29 -29 -35 0 -6
-20 -9 -51 -7 -33 2 -53 -1 -53 -7 0 -6 11 -11 25 -11 26 0 34 -15 13 -23 -8
-3 -6 -6 5 -6 22 -1 22 -17 0 -30 -31 -17 -8 -22 25 -5 18 8 38 14 45 11 7 -2
1 -10 -14 -17 -34 -16 -58 -82 -39 -105 8 -10 17 -12 23 -6 11 11 0 34 -14 26
-16 -10 -10 12 10 36 18 22 20 23 27 5 4 -11 2 -21 -7 -27 -12 -8 -12 -10 0
-18 10 -7 11 -13 2 -30 -12 -22 -5 -26 23 -15 9 3 14 9 12 13 -3 4 10 5 27 4
25 -3 40 4 71 32 42 38 48 42 40 22 -4 -13 2 -13 91 -5 24 3 30 -2 36 -22 l6
-25 4 25 4 26 78 -24 c72 -21 77 -25 73 -47 -3 -14 -8 -30 -12 -37 -4 -7 7 0
24 16 l30 28 53 -17 c78 -26 135 -53 149 -70 7 -8 18 -15 25 -15 7 0 18 -7 26
-16 7 -8 29 -24 48 -34 20 -10 73 -48 119 -85 61 -49 82 -72 82 -90 0 -13 -4
-27 -10 -30 -5 -3 -10 -11 -10 -16 0 -6 4 -8 9 -5 11 7 23 -22 15 -36 -3 -5 2
-15 12 -23 15 -11 25 -10 61 8 24 12 45 29 49 39 10 34 42 41 153 35 101 -5
103 -5 51 7 -30 7 -62 16 -72 22 -33 18 -98 85 -98 100 0 11 -5 14 -17 10 -10
-4 -14 -4 -10 0 4 4 -7 14 -24 21 -17 7 -28 17 -24 23 3 5 -2 10 -13 10 -10 0
-45 23 -76 50 -31 28 -64 50 -72 50 -8 0 -12 5 -9 10 3 6 0 10 -9 10 -8 0 -17
-6 -19 -12 -4 -8 -8 -4 -12 9 -5 14 -17 23 -34 25 -14 2 -25 8 -24 14 1 6 -17
18 -40 28 -115 48 -202 99 -205 122 -3 23 -46 46 -60 32 -10 -10 -89 26 -104
47 -8 12 0 27 12 20 5 -3 11 -1 14 3 6 11 -21 9 -47 -2 -13 -6 -24 -2 -38 13
-11 11 -25 21 -32 22 -7 1 -30 2 -52 3 -22 1 -58 6 -80 10 -22 5 -37 5 -33 2z
m72 -64 c2 -4 -9 -15 -25 -24 l-29 -17 17 24 c19 26 29 30 37 17z m-164 -56
c0 -11 -19 -15 -25 -6 -3 5 1 10 9 10 9 0 16 -2 16 -4z m180 -26 c8 -5 11 -10
5 -10 -5 0 -17 5 -25 10 -8 5 -10 10 -5 10 6 0 17 -5 25 -10z m-195 -10 c3 -5
1 -10 -4 -10 -6 0 -11 5 -11 10 0 6 2 10 4 10 3 0 8 -4 11 -10z m62 -45 c-5
-13 -10 -13 -26 -3 -18 11 -18 13 -3 24 20 15 37 2 29 -21z m-72 -14 c3 -5 1
-12 -5 -16 -5 -3 -10 1 -10 9 0 18 6 21 15 7z m906 -168 c13 -17 13 -17 -6 -3
-11 8 -22 16 -24 17 -2 2 0 3 6 3 6 0 17 -8 24 -17z"/>
<path d="M5883 3533 c9 -2 25 -2 35 0 9 3 1 5 -18 5 -19 0 -27 -2 -17 -5z"/>
<path d="M5810 3520 c0 -5 6 -10 14 -10 8 0 18 5 21 10 3 6 -3 10 -14 10 -12
0 -21 -4 -21 -10z"/>
<path d="M4145 3500 c10 -11 20 -20 23 -20 3 0 -3 9 -13 20 -10 11 -20 20 -23
20 -3 0 3 -9 13 -20z"/>
<path d="M5848 3473 c7 -3 16 -2 19 1 4 3 -2 6 -13 5 -11 0 -14 -3 -6 -6z"/>
<path d="M4200 3456 c0 -2 8 -10 18 -17 15 -13 16 -12 3 4 -13 16 -21 21 -21
13z"/>
<path d="M6565 3430 c-3 -6 1 -7 9 -4 18 7 21 14 7 14 -6 0 -13 -4 -16 -10z"/>
<path d="M3976 3367 c3 -10 9 -15 12 -12 3 3 0 11 -7 18 -10 9 -11 8 -5 -6z"/>
<path d="M7386 3327 c3 -10 9 -15 12 -12 3 3 0 11 -7 18 -10 9 -11 8 -5 -6z"/>
<path d="M7351 3305 c0 -5 6 -21 14 -35 8 -14 14 -20 14 -15 0 6 -6 21 -14 35
-8 14 -14 21 -14 15z"/>
<path d="M4050 3291 c0 -6 4 -12 8 -15 5 -3 9 1 9 9 0 8 -4 15 -9 15 -4 0 -8
-4 -8 -9z"/>
<path d="M5893 3276 c5 -16 22 -17 42 -2 19 14 18 15 -12 13 -18 -1 -32 -6
-30 -11z"/>
<path d="M7642 3260 c0 -14 2 -19 5 -12 2 6 2 18 0 25 -3 6 -5 1 -5 -13z"/>
<path d="M4056 3247 c3 -10 9 -15 12 -12 3 3 0 11 -7 18 -10 9 -11 8 -5 -6z"/>
<path d="M6225 3230 c-10 -11 -16 -22 -13 -25 3 -3 13 6 22 20 20 30 16 32 -9
5z"/>
<path d="M5750 3170 c8 -5 20 -10 25 -10 6 0 3 5 -5 10 -8 5 -19 10 -25 10 -5
0 -3 -5 5 -10z"/>
<path d="M5880 3160 c0 -11 59 -44 66 -37 3 2 -11 14 -31 25 -19 12 -35 17
-35 12z"/>
<path d="M5989 3105 c18 -8 37 -15 42 -15 4 0 57 -24 116 -53 136 -67 333
-141 238 -90 -16 9 -38 27 -48 39 -27 34 -96 71 -138 73 -20 1 -69 13 -110 27
-41 14 -87 28 -104 30 l-30 5 34 -16z"/>
<path d="M6170 2959 c-17 -30 -6 -34 14 -4 9 14 12 25 7 25 -6 0 -15 -9 -21
-21z"/>
<path d="M7592 2930 c-1 -14 3 -43 7 -65 6 -26 9 -31 9 -15 1 14 -3 43 -7 65
-6 26 -9 31 -9 15z"/>
<path d="M6455 2911 c22 -11 72 -29 110 -39 114 -33 148 -48 157 -71 5 -14 12
-19 19 -15 7 4 9 3 5 -4 -3 -6 -1 -14 5 -18 6 -3 15 -1 19 7 6 9 12 10 22 2 7
-6 29 -11 50 -11 20 0 52 -6 72 -13 27 -10 39 -10 47 -2 9 9 7 11 -9 6 -24 -6
-56 20 -49 40 4 9 6 9 6 0 1 -7 6 -13 12 -13 5 0 8 3 6 8 -3 4 6 7 19 7 14 0
22 -5 20 -11 -3 -8 2 -8 19 0 28 13 23 19 -25 35 -29 10 -40 9 -67 -6 -32 -17
-33 -17 -53 5 -11 12 -31 22 -44 22 -12 0 -26 3 -29 6 -4 4 -24 8 -46 10 -22
2 -75 15 -118 28 -43 13 -94 27 -113 31 -19 4 -44 8 -55 11 -11 2 -2 -5 20
-15z m395 -125 c0 -2 -11 -6 -25 -8 -13 -3 -22 -1 -19 3 5 9 44 13 44 5z"/>
<path d="M8402 2885 c0 -11 4 -31 8 -45 6 -20 8 -21 8 -5 0 11 -4 31 -8 45 -6
20 -8 21 -8 5z"/>
<path d="M7045 2810 l-30 -8 33 -1 c17 0 32 4 32 9 0 6 -1 9 -2 9 -2 -1 -16
-5 -33 -9z"/>
<path d="M7095 2810 c-3 -6 1 -7 9 -4 18 7 21 14 7 14 -6 0 -13 -4 -16 -10z"/>
<path d="M7612 2785 c0 -16 2 -22 5 -12 2 9 2 23 0 30 -3 6 -5 -1 -5 -18z"/>
<path d="M6982 2741 c2 -9 -8 -17 -27 -21 l-30 -6 34 -7 c39 -8 94 -8 71 0 -8
3 -23 15 -33 27 -10 12 -16 15 -15 7z"/>
<path d="M7535 2726 c-33 -7 -71 -18 -85 -26 -19 -10 -67 -12 -210 -8 -161 5
-179 4 -140 -7 25 -7 39 -13 33 -14 -7 -1 -13 -7 -13 -15 0 -23 72 -29 205
-16 152 14 196 21 190 30 -2 4 18 3 46 -2 28 -5 53 -7 56 -4 12 11 -8 36 -29
37 -21 1 -21 1 5 11 27 10 38 29 15 27 -7 -1 -40 -7 -73 -13z m-312 -53 c-7
-2 -21 -2 -30 0 -10 3 -4 5 12 5 17 0 24 -2 18 -5z"/>
<path d="M5770 2710 c-6 -11 -7 -20 -3 -20 5 0 14 9 21 20 7 11 8 20 2 20 -5
0 -14 -9 -20 -20z"/>
<path d="M5708 2693 c7 -3 16 -2 19 1 4 3 -2 6 -13 5 -11 0 -14 -3 -6 -6z"/>
<path d="M5868 2693 c7 -3 16 -2 19 1 4 3 -2 6 -13 5 -11 0 -14 -3 -6 -6z"/>
<path d="M7631 2670 c0 -8 7 -31 14 -50 l14 -35 -6 40 c-5 39 -24 75 -22 45z"/>
<path d="M7676 2530 c10 -38 43 -100 77 -145 31 -41 134 -131 142 -124 2 3
-20 23 -49 46 -64 49 -96 89 -142 180 -20 37 -32 57 -28 43z"/>
<path d="M5808 2343 c6 -2 18 -2 25 0 6 3 1 5 -13 5 -14 0 -19 -2 -12 -5z"/>
<path d="M7175 1910 c-3 -5 1 -10 9 -10 8 0 18 5 21 10 3 6 -1 10 -9 10 -8 0
-18 -4 -21 -10z"/>
<path d="M3370 1531 c0 -5 5 -13 10 -16 7 -4 3 -19 -10 -40 -20 -33 -20 -34
-1 -40 11 -3 28 -1 38 6 15 9 33 6 95 -19 42 -17 95 -43 119 -59 23 -15 50
-33 61 -39 11 -6 19 -14 18 -18 -2 -12 15 -31 42 -49 31 -20 62 -23 56 -5 -7
19 -93 88 -115 93 -12 2 -39 15 -61 30 -22 15 -67 37 -99 50 -50 21 -58 28
-58 51 -1 16 -9 33 -22 41 -26 18 -73 26 -73 14z m20 -81 c0 -5 -4 -10 -10
-10 -5 0 -10 5 -10 10 0 6 5 10 10 10 6 0 10 -4 10 -10z"/>
<path d="M7835 1500 c-3 -5 -1 -10 4 -10 6 0 11 5 11 10 0 6 -2 10 -4 10 -3 0
-8 -4 -11 -10z"/>
<path d="M6392 1420 c-33 -27 -96 -161 -126 -265 -44 -156 -82 -402 -78 -505
1 -31 -4 -68 -12 -85 -74 -156 -108 -284 -109 -400 0 -86 9 -172 19 -163 2 3
5 72 7 154 4 153 11 188 65 314 l19 45 0 -78 c0 -42 5 -83 11 -90 14 -16 21
-137 10 -159 -7 -14 -5 -18 9 -18 15 0 16 -2 3 -10 -13 -8 -13 -10 1 -10 11 0
19 -12 24 -37 3 -20 14 -54 23 -75 l17 -38 103 0 c112 0 109 -3 64 58 -17 22
-20 32 -11 33 8 0 4 4 -8 9 -13 5 -23 14 -23 20 0 6 5 8 12 4 8 -5 9 -2 5 9
-5 14 0 17 26 18 18 1 38 1 45 0 6 -1 12 5 12 14 0 9 -4 13 -10 10 -6 -3 -7 1
-4 9 7 18 24 11 24 -10 0 -8 6 -14 14 -14 23 0 28 17 8 25 -15 6 -14 8 8 20
14 8 19 14 11 15 -7 0 -11 6 -7 15 3 8 1 15 -4 15 -9 0 -14 -14 -11 -32 2 -15
-17 -8 -23 8 -3 8 -9 13 -14 10 -4 -2 -14 0 -22 6 -12 8 -11 9 5 4 19 -6 19
-6 1 9 -20 15 -41 11 -30 -7 4 -6 -2 -5 -15 2 -17 9 -21 18 -17 41 2 16 0 31
-5 35 -5 3 -7 10 -4 15 4 5 -2 9 -11 9 -10 0 -15 3 -11 6 3 3 2 17 -3 30 -6
15 -5 26 2 30 6 4 8 3 4 -4 -3 -6 4 -22 18 -36 19 -22 28 -25 47 -17 23 9 23
10 2 10 -18 1 -21 7 -21 31 1 32 -11 56 -13 27 -3 -30 -4 -35 -13 -44 -5 -4
-6 4 -2 20 5 21 3 27 -11 28 -16 0 -16 1 1 8 16 6 17 9 4 13 -22 9 -31 48 -9
41 13 -4 14 -3 1 5 -10 8 -19 7 -29 -1 -12 -9 -13 -9 -7 0 4 7 2 13 -3 13 -6
0 -11 5 -11 11 0 5 5 7 12 3 7 -4 8 -3 4 5 -13 20 -27 0 -22 -30 3 -20 1 -29
-7 -26 -7 2 -12 16 -12 30 0 15 -3 27 -7 27 -5 0 -11 0 -14 0 -4 0 -1 -7 6
-15 11 -13 10 -14 -4 -9 -21 8 -21 -12 1 -24 9 -6 18 -18 19 -28 3 -18 2 -18
-10 -1 -23 30 -26 18 -5 -18 12 -19 25 -32 30 -29 5 3 9 -7 8 -23 0 -15 2 -46
6 -68 4 -27 2 -36 -4 -30 -6 6 -12 20 -14 32 -4 25 -17 43 -17 23 0 -10 -3
-10 -15 0 -9 8 -15 30 -15 56 0 24 -3 44 -7 44 -13 0 -13 70 0 70 7 0 3 7 -7
15 -11 8 -14 15 -8 15 7 0 12 5 12 11 0 6 -6 9 -14 6 -8 -3 -17 1 -20 9 -17
44 35 175 103 261 37 48 177 153 203 153 10 0 10 2 -1 9 -18 11 -35 5 -88 -31
-58 -39 -105 -90 -164 -178 -28 -41 -52 -76 -52 -77 -1 -1 -3 17 -5 40 -4 62
17 263 35 332 9 33 17 67 18 75 9 64 67 197 98 225 34 31 49 53 40 58 -4 3
-18 -3 -31 -13z m-42 -990 c0 -5 -5 -10 -11 -10 -5 0 -7 5 -4 10 3 6 8 10 11
10 2 0 4 -4 4 -10z m23 -130 c-3 -11 -7 -20 -8 -20 -1 0 -5 9 -8 20 -3 12 0
20 8 20 8 0 11 -8 8 -20z m22 -50 c3 -5 1 -10 -4 -10 -6 0 -11 5 -11 10 0 6 2
10 4 10 3 0 8 -4 11 -10z"/>
<path d="M7390 1316 c0 -36 -5 -60 -16 -70 -13 -14 -13 -16 0 -16 17 0 30 34
27 73 -1 20 2 26 10 21 9 -5 10 -2 6 10 -4 10 -7 22 -7 27 0 5 -4 9 -10 9 -5
0 -10 -24 -10 -54z"/>
<path d="M7431 1344 c0 -11 3 -14 6 -6 3 7 2 16 -1 19 -3 4 -6 -2 -5 -13z"/>
<path d="M7597 1318 c-9 -5 -9 -10 2 -20 11 -11 13 -11 6 0 -5 10 -1 13 15 10
13 -2 25 2 27 7 4 12 -32 14 -50 3z"/>
<path d="M7657 1206 c-4 -10 -1 -13 9 -9 15 6 19 23 5 23 -5 0 -11 -7 -14 -14z"/>
<path d="M7540 1190 c-9 -6 -10 -10 -3 -10 6 0 15 5 18 10 8 12 4 12 -15 0z"/>
<path d="M7640 1169 c0 -5 5 -7 10 -4 6 3 10 1 10 -5 0 -6 5 -8 11 -4 8 4 7 9
-2 15 -19 12 -29 11 -29 -2z"/>
<path d="M7635 1140 c-3 -5 -1 -10 4 -10 6 0 11 5 11 10 0 6 -2 10 -4 10 -3 0
-8 -4 -11 -10z"/>
<path d="M7215 1120 c-3 -5 -1 -10 4 -10 6 0 11 5 11 10 0 6 -2 10 -4 10 -3 0
-8 -4 -11 -10z"/>
<path d="M7384 1083 c9 -10 56 -12 61 -3 3 4 -11 8 -31 8 -19 0 -33 -2 -30 -5z"/>
<path d="M6609 883 c3 -20 11 -38 18 -40 8 -3 8 5 -1 31 -17 49 -24 53 -17 9z"/>
<path d="M7363 895 c-4 -5 -3 -7 2 -3 4 4 13 0 20 -9 8 -11 14 -13 19 -5 4 7
1 12 -6 13 -7 0 -4 4 7 9 17 7 16 8 -8 7 -16 -1 -31 -6 -34 -12z"/>
<path d="M7366 853 c-6 -14 -5 -15 5 -6 7 7 10 15 7 18 -3 3 -9 -2 -12 -12z"/>
<path d="M7148 713 c7 -3 16 -2 19 1 4 3 -2 6 -13 5 -11 0 -14 -3 -6 -6z"/>
<path d="M7308 713 c7 -3 16 -2 19 1 4 3 -2 6 -13 5 -11 0 -14 -3 -6 -6z"/>
<path d="M7160 645 c0 -10 -15 -17 -42 -22 -34 -5 -38 -8 -23 -14 11 -4 31 -8
45 -8 14 1 20 3 13 5 -13 6 13 37 38 47 8 3 5 6 -8 6 -14 1 -23 -5 -23 -14z"/>
<path d="M7095 640 c-3 -5 -1 -10 4 -10 6 0 11 5 11 10 0 6 -2 10 -4 10 -3 0
-8 -4 -11 -10z"/>
<path d="M7167 598 c-4 -12 -2 -27 4 -34 7 -8 7 -14 -1 -19 -15 -9 -12 -22 6
-29 8 -3 13 -2 9 3 -3 5 2 17 11 25 9 9 11 16 4 16 -6 0 -8 4 -5 10 3 6 -1 7
-10 4 -13 -5 -14 -2 -5 20 5 14 6 26 1 26 -5 0 -11 -10 -14 -22z"/>
<path d="M7048 603 c7 -3 16 -2 19 1 4 3 -2 6 -13 5 -11 0 -14 -3 -6 -6z"/>
<path d="M6973 593 c4 -7 0 -14 -10 -16 -10 -3 -6 -4 9 -3 15 1 31 6 35 11 4
6 4 7 -1 3 -5 -4 -16 -2 -24 5 -11 8 -14 8 -9 0z"/>
<path d="M7030 580 c0 -5 5 -10 11 -10 5 0 7 5 4 10 -3 6 -8 10 -11 10 -2 0
-4 -4 -4 -10z"/>
<path d="M7098 565 c2 -14 9 -25 14 -25 6 0 8 7 4 15 -3 8 -1 15 5 15 6 0 7 5
4 10 -13 21 -32 10 -27 -15z"/>
<path d="M6280 560 c0 -5 5 -10 11 -10 5 0 7 5 4 10 -3 6 -8 10 -11 10 -2 0
-4 -4 -4 -10z"/>
<path d="M7000 551 c0 -6 4 -12 8 -15 5 -3 9 1 9 9 0 8 -4 15 -9 15 -4 0 -8
-4 -8 -9z"/>
<path d="M6970 520 c-9 -6 -10 -10 -3 -10 6 0 19 -8 28 -17 16 -16 16 -17 -1
-30 -16 -12 -15 -13 12 -13 16 0 24 4 18 8 -6 4 -10 21 -9 37 2 17 1 25 -2 18
-2 -7 -11 -9 -19 -6 -7 3 -11 9 -8 14 7 11 3 11 -16 -1z"/>
<path d="M6417 503 c-13 -12 -8 -35 6 -26 6 4 18 8 25 9 8 2 17 6 20 10 4 4 0
5 -9 1 -9 -3 -21 -1 -26 4 -5 5 -12 6 -16 2z"/>
<path d="M7105 460 c3 -5 8 -10 11 -10 2 0 4 5 4 10 0 6 -5 10 -11 10 -5 0 -7
-4 -4 -10z"/>
<path d="M6775 440 c3 -5 8 -10 11 -10 2 0 4 5 4 10 0 6 -5 10 -11 10 -5 0 -7
-4 -4 -10z"/>
<path d="M3090 436 c0 -2 7 -7 16 -10 8 -3 12 -2 9 4 -6 10 -25 14 -25 6z"/>
<path d="M6810 410 c8 -5 20 -10 25 -10 6 0 3 5 -5 10 -8 5 -19 10 -25 10 -5
0 -3 -5 5 -10z"/>
<path d="M6855 410 c-3 -5 -1 -10 4 -10 6 0 11 5 11 10 0 6 -2 10 -4 10 -3 0
-8 -4 -11 -10z"/>
<path d="M6918 413 c7 -3 16 -2 19 1 4 3 -2 6 -13 5 -11 0 -14 -3 -6 -6z"/>
<path d="M6545 400 l-30 -8 32 -1 c17 0 35 4 38 9 7 11 3 11 -40 0z"/>
<path d="M7085 400 c-3 -6 1 -7 9 -4 18 7 21 14 7 14 -6 0 -13 -4 -16 -10z"/>
<path d="M6608 383 c7 -3 16 -2 19 1 4 3 -2 6 -13 5 -11 0 -14 -3 -6 -6z"/>
<path d="M6812 378 c5 -15 28 -23 28 -10 0 5 -7 13 -16 16 -10 4 -14 1 -12 -6z"/>
<path d="M6540 359 c0 -18 2 -19 15 -5 8 8 15 17 15 20 0 3 -7 6 -15 6 -9 0
-15 -9 -15 -21z"/>
<path d="M6635 369 c-11 -17 1 -21 15 -4 8 9 8 15 2 15 -6 0 -14 -5 -17 -11z"/>
<path d="M6707 359 c4 -13 8 -18 11 -10 2 7 -1 18 -6 23 -8 8 -9 4 -5 -13z"/>
<path d="M6887 366 c-4 -10 -1 -13 8 -9 8 3 12 9 9 14 -7 12 -11 11 -17 -5z"/>
<path d="M6498 360 c30 -12 30 -32 -1 -21 -15 6 -26 4 -35 -5 -10 -12 -10 -14
3 -14 13 0 20 -18 16 -42 0 -4 10 -2 24 4 25 11 34 28 15 28 -5 0 -10 -4 -10
-10 0 -5 -4 -10 -10 -10 -5 0 -10 9 -10 19 0 14 5 18 20 14 15 -4 20 0 20 15
0 19 -19 33 -43 31 -7 0 -2 -4 11 -9z"/>
<path d="M6764 354 c-18 -14 -18 -15 4 -4 12 6 22 13 22 15 0 8 -5 6 -26 -11z"/>
<path d="M6918 353 c-10 -2 -18 -8 -18 -12 0 -4 -16 -13 -35 -21 -19 -7 -32
-17 -29 -22 3 -5 10 -6 15 -2 19 11 64 12 72 0 4 -6 5 0 3 14 -2 14 1 31 6 38
6 6 9 11 7 11 -2 -1 -12 -3 -21 -6z"/>
<path d="M6560 333 c0 -9 3 -13 7 -10 3 4 12 2 20 -4 18 -15 17 -1 -1 17 -19
18 -26 18 -26 -3z"/>
<path d="M6790 341 c0 -6 4 -13 10 -16 6 -3 7 1 4 9 -7 18 -14 21 -14 7z"/>
<path d="M6950 330 c-8 -5 -10 -10 -5 -10 6 0 17 5 25 10 8 5 11 10 5 10 -5 0
-17 -5 -25 -10z"/>
<path d="M6541 325 c-1 -21 14 -34 29 -25 13 8 13 10 -2 10 -9 0 -19 6 -21 13
-3 6 -6 8 -6 2z"/>
<path d="M6426 293 c-4 -9 -2 -21 4 -27 7 -7 10 -3 10 11 0 12 8 24 18 26 13
4 12 5 -4 6 -12 0 -25 -7 -28 -16z"/>
<path d="M6645 301 c-3 -5 -2 -12 3 -15 5 -3 9 1 9 9 0 17 -3 19 -12 6z"/>
<path d="M7015 301 c-3 -5 -2 -12 3 -15 5 -3 9 1 9 9 0 17 -3 19 -12 6z"/>
<path d="M6768 293 c7 -3 16 -2 19 1 4 3 -2 6 -13 5 -11 0 -14 -3 -6 -6z"/>
<path d="M6900 260 c-19 -11 -43 -19 -52 -20 -15 0 -27 -20 -13 -20 10 0 105
50 105 55 0 7 -1 7 -40 -15z"/>
<path d="M6961 263 c7 -8 15 -10 18 -6 4 4 10 11 14 14 4 4 -4 7 -18 7 -21 0
-23 -3 -14 -15z"/>
<path d="M6589 253 c-13 -16 -12 -17 4 -4 16 13 21 21 13 21 -2 0 -10 -8 -17
-17z"/>
<path d="M6506 247 c3 -10 9 -15 12 -12 3 3 0 11 -7 18 -10 9 -11 8 -5 -6z"/>
<path d="M6705 240 c-4 -6 -12 -7 -18 -3 -7 4 -5 -1 3 -12 14 -16 15 -16 18
-1 2 9 8 13 14 10 7 -4 8 -2 4 4 -9 15 -13 15 -21 2z"/>
<path d="M6618 223 c7 -3 16 -2 19 1 4 3 -2 6 -13 5 -11 0 -14 -3 -6 -6z"/>
<path d="M6574 209 c-3 -5 6 -9 20 -9 31 0 34 6 6 13 -11 3 -23 1 -26 -4z"/>
<path d="M6819 167 c9 -11 10 -17 2 -17 -6 0 -11 -5 -11 -11 0 -5 5 -7 10 -4
6 3 10 -1 10 -9 0 -19 9 -20 30 -5 13 9 12 10 -2 5 -18 -5 -26 9 -9 16 5 2 -3
12 -17 23 -21 15 -24 15 -13 2z"/>
<path d="M4806 154 c-5 -14 -4 -15 9 -4 17 14 19 20 6 20 -5 0 -12 -7 -15 -16z"/>
<path d="M5890 136 c0 -8 4 -17 9 -21 6 -3 9 4 8 15 -1 23 -17 28 -17 6z"/>
<path d="M4876 118 c3 -5 10 -6 15 -3 13 9 11 12 -6 12 -8 0 -12 -4 -9 -9z"/>
</g>
</svg>
